<svg xmlns="http://www.w3.org/2000/svg" xmlns:xlink="http://www.w3.org/1999/xlink" width="400" zoomAndPan="magnify" viewBox="0 0 300 74.999997" height="100" preserveAspectRatio="xMidYMid meet" version="1.0"><defs><g/></defs><g fill="#ffffff" fill-opacity="1"><g transform="translate(2.404712, 53.021236)"><g><path d="M 18.828125 0 L 9.5625 0 L 9.5625 -26.703125 L 1.203125 -26.703125 L 1.203125 -34.28125 L 27.171875 -34.28125 L 27.171875 -26.703125 L 18.828125 -26.703125 Z M 18.828125 0 "/></g></g></g><g fill="#ffffff" fill-opacity="1"><g transform="translate(30.003562, 53.021236)"><g><path d="M 12.96875 -12.46875 L 12.96875 0 L 3.703125 0 L 3.703125 -34.28125 L 14.9375 -34.28125 C 24.25 -34.28125 28.90625 -30.90625 28.90625 -24.15625 C 28.90625 -20.175781 26.96875 -17.101562 23.09375 -14.9375 L 33.078125 0 L 22.578125 0 L 15.3125 -12.46875 Z M 12.96875 -19.4375 L 14.703125 -19.4375 C 17.929688 -19.4375 19.546875 -20.863281 19.546875 -23.71875 C 19.546875 -26.082031 17.960938 -27.265625 14.796875 -27.265625 L 12.96875 -27.265625 Z M 12.96875 -19.4375 "/></g></g></g><g fill="#ffffff" fill-opacity="1"><g transform="translate(61.728563, 53.021236)"><g><path d="M 3.703125 0 L 3.703125 -34.28125 L 13.015625 -34.28125 L 13.015625 0 Z M 3.703125 0 "/></g></g></g><g fill="#ffffff" fill-opacity="1"><g transform="translate(77.675725, 53.021236)"><g><path d="M 28.578125 -23.375 C 28.578125 -19.539062 27.445312 -16.582031 25.1875 -14.5 C 22.925781 -12.414062 19.71875 -11.375 15.5625 -11.375 L 12.96875 -11.375 L 12.96875 0 L 3.703125 0 L 3.703125 -34.28125 L 15.5625 -34.28125 C 19.894531 -34.28125 23.144531 -33.332031 25.3125 -31.4375 C 27.488281 -29.550781 28.578125 -26.863281 28.578125 -23.375 Z M 12.96875 -18.921875 L 14.65625 -18.921875 C 16.039062 -18.921875 17.144531 -19.3125 17.96875 -20.09375 C 18.789062 -20.875 19.203125 -21.953125 19.203125 -23.328125 C 19.203125 -25.640625 17.921875 -26.796875 15.359375 -26.796875 L 12.96875 -26.796875 Z M 12.96875 -18.921875 "/></g></g></g><g fill="#ffde59" fill-opacity="1"><g transform="translate(107.243483, 53.021236)"><g><path d="M 3.703125 -34.28125 L 15.65625 -34.28125 C 20.3125 -34.28125 23.769531 -33.585938 26.03125 -32.203125 C 28.289062 -30.816406 29.421875 -28.664062 29.421875 -25.75 C 29.421875 -23.820312 28.925781 -22.175781 27.9375 -20.8125 C 26.957031 -19.457031 25.664062 -18.582031 24.0625 -18.1875 L 24.0625 -17.953125 C 26.1875 -17.390625 27.722656 -16.453125 28.671875 -15.140625 C 29.628906 -13.828125 30.109375 -12.125 30.109375 -10.03125 C 30.109375 -6.925781 28.9375 -4.476562 26.59375 -2.6875 C 24.257812 -0.894531 21.078125 0 17.046875 0 L 3.703125 0 Z M 12.96875 -21.125 L 15.75 -21.125 C 17.082031 -21.125 18.109375 -21.394531 18.828125 -21.9375 C 19.554688 -22.488281 19.921875 -23.304688 19.921875 -24.390625 C 19.921875 -26.304688 18.46875 -27.265625 15.5625 -27.265625 L 12.96875 -27.265625 Z M 12.96875 -14.34375 L 12.96875 -7.15625 L 16.21875 -7.15625 C 19.113281 -7.15625 20.5625 -8.375 20.5625 -10.8125 C 20.5625 -11.945312 20.171875 -12.816406 19.390625 -13.421875 C 18.617188 -14.035156 17.5 -14.34375 16.03125 -14.34375 Z M 12.96875 -14.34375 "/></g></g></g><g fill="#ffde59" fill-opacity="1"><g transform="translate(138.82782, 53.021236)"><g><path d="M 32.84375 -34.28125 L 32.84375 -13.640625 C 32.84375 -9.160156 31.570312 -5.6875 29.03125 -3.21875 C 26.5 -0.757812 22.835938 0.46875 18.046875 0.46875 C 13.378906 0.46875 9.789062 -0.722656 7.28125 -3.109375 C 4.769531 -5.503906 3.515625 -8.945312 3.515625 -13.4375 L 3.515625 -34.28125 L 12.828125 -34.28125 L 12.828125 -14.15625 C 12.828125 -11.738281 13.28125 -9.984375 14.1875 -8.890625 C 15.09375 -7.796875 16.425781 -7.25 18.1875 -7.25 C 20.082031 -7.25 21.453125 -7.789062 22.296875 -8.875 C 23.148438 -9.957031 23.578125 -11.734375 23.578125 -14.203125 L 23.578125 -34.28125 Z M 32.84375 -34.28125 "/></g></g></g><g fill="#ffde59" fill-opacity="1"><g transform="translate(174.397643, 53.021236)"><g><path d="M 32.796875 -17.859375 C 32.796875 -12.140625 31.21875 -7.734375 28.0625 -4.640625 C 24.914062 -1.546875 20.492188 0 14.796875 0 L 3.703125 0 L 3.703125 -34.28125 L 15.5625 -34.28125 C 21.0625 -34.28125 25.304688 -32.875 28.296875 -30.0625 C 31.296875 -27.25 32.796875 -23.179688 32.796875 -17.859375 Z M 23.1875 -17.53125 C 23.1875 -20.675781 22.5625 -23.003906 21.3125 -24.515625 C 20.070312 -26.035156 18.1875 -26.796875 15.65625 -26.796875 L 12.96875 -26.796875 L 12.96875 -7.59375 L 15.03125 -7.59375 C 17.84375 -7.59375 19.90625 -8.410156 21.21875 -10.046875 C 22.53125 -11.679688 23.1875 -14.175781 23.1875 -17.53125 Z M 23.1875 -17.53125 "/></g></g></g><g fill="#ffde59" fill-opacity="1"><g transform="translate(208.865603, 53.021236)"><g><path d="M 17.46875 -20.0625 L 32.265625 -20.0625 L 32.265625 -1.59375 C 28.242188 -0.21875 23.828125 0.46875 19.015625 0.46875 C 13.734375 0.46875 9.648438 -1.0625 6.765625 -4.125 C 3.878906 -7.1875 2.4375 -11.554688 2.4375 -17.234375 C 2.4375 -22.765625 4.015625 -27.066406 7.171875 -30.140625 C 10.328125 -33.222656 14.75 -34.765625 20.4375 -34.765625 C 22.59375 -34.765625 24.628906 -34.5625 26.546875 -34.15625 C 28.460938 -33.75 30.132812 -33.234375 31.5625 -32.609375 L 28.625 -25.34375 C 26.15625 -26.5625 23.441406 -27.171875 20.484375 -27.171875 C 17.785156 -27.171875 15.695312 -26.289062 14.21875 -24.53125 C 12.738281 -22.769531 12 -20.257812 12 -17 C 12 -13.789062 12.664062 -11.347656 14 -9.671875 C 15.34375 -7.992188 17.269531 -7.15625 19.78125 -7.15625 C 21.15625 -7.15625 22.421875 -7.285156 23.578125 -7.546875 L 23.578125 -12.921875 L 17.46875 -12.921875 Z M 17.46875 -20.0625 "/></g></g></g><g fill="#ffde59" fill-opacity="1"><g transform="translate(243.638323, 53.021236)"><g><path d="M 24.0625 0 L 3.703125 0 L 3.703125 -34.28125 L 24.0625 -34.28125 L 24.0625 -26.84375 L 12.96875 -26.84375 L 12.96875 -21.453125 L 23.234375 -21.453125 L 23.234375 -14.015625 L 12.96875 -14.015625 L 12.96875 -7.546875 L 24.0625 -7.546875 Z M 24.0625 0 "/></g></g></g><g fill="#ffde59" fill-opacity="1"><g transform="translate(269.22098, 53.021236)"><g><path d="M 18.828125 0 L 9.5625 0 L 9.5625 -26.703125 L 1.203125 -26.703125 L 1.203125 -34.28125 L 27.171875 -34.28125 L 27.171875 -26.703125 L 18.828125 -26.703125 Z M 18.828125 0 "/></g></g></g></svg>