<svg xmlns="http://www.w3.org/2000/svg" xmlns:xlink="http://www.w3.org/1999/xlink" width="500" zoomAndPan="magnify" viewBox="0 0 375 374.999991" height="500" preserveAspectRatio="xMidYMid meet" version="1.0"><defs><clipPath id="b53769b521"><path d="M 7 16 L 238 16 L 238 361.191406 L 7 361.191406 Z M 7 16 " clip-rule="nonzero"/></clipPath><clipPath id="50150ec28c"><path d="M 111 64 L 365 64 L 365 353 L 111 353 Z M 111 64 " clip-rule="nonzero"/></clipPath><clipPath id="6cb48fdc33"><path d="M 195.132812 55.566406 L 375.21875 128.378906 L 281.039062 361.3125 L 100.953125 288.496094 Z M 195.132812 55.566406 " clip-rule="nonzero"/></clipPath><clipPath id="7df8d823c6"><path d="M 195.132812 55.566406 L 375.21875 128.378906 L 281.039062 361.3125 L 100.953125 288.496094 Z M 195.132812 55.566406 " clip-rule="nonzero"/></clipPath><clipPath id="a15f7d5c3c"><path d="M 181 135 L 219 135 L 219 171 L 181 171 Z M 181 135 " clip-rule="nonzero"/></clipPath><clipPath id="2eceb67fff"><path d="M 195.132812 55.566406 L 375.21875 128.378906 L 281.039062 361.3125 L 100.953125 288.496094 Z M 195.132812 55.566406 " clip-rule="nonzero"/></clipPath><clipPath id="11fc8a1ce6"><path d="M 195.132812 55.566406 L 375.21875 128.378906 L 281.039062 361.3125 L 100.953125 288.496094 Z M 195.132812 55.566406 " clip-rule="nonzero"/></clipPath><clipPath id="0dd9589f0e"><path d="M 216 149 L 253 149 L 253 184 L 216 184 Z M 216 149 " clip-rule="nonzero"/></clipPath><clipPath id="a0208b3629"><path d="M 195.132812 55.566406 L 375.21875 128.378906 L 281.039062 361.3125 L 100.953125 288.496094 Z M 195.132812 55.566406 " clip-rule="nonzero"/></clipPath><clipPath id="b128ba2062"><path d="M 195.132812 55.566406 L 375.21875 128.378906 L 281.039062 361.3125 L 100.953125 288.496094 Z M 195.132812 55.566406 " clip-rule="nonzero"/></clipPath><clipPath id="e45987c3a8"><path d="M 251 163 L 288 163 L 288 199 L 251 199 Z M 251 163 " clip-rule="nonzero"/></clipPath><clipPath id="48dabc3fad"><path d="M 195.132812 55.566406 L 375.21875 128.378906 L 281.039062 361.3125 L 100.953125 288.496094 Z M 195.132812 55.566406 " clip-rule="nonzero"/></clipPath><clipPath id="4b59ecbd2c"><path d="M 195.132812 55.566406 L 375.21875 128.378906 L 281.039062 361.3125 L 100.953125 288.496094 Z M 195.132812 55.566406 " clip-rule="nonzero"/></clipPath><clipPath id="310bd105a6"><path d="M 285 177 L 323 177 L 323 213 L 285 213 Z M 285 177 " clip-rule="nonzero"/></clipPath><clipPath id="bc240636d0"><path d="M 195.132812 55.566406 L 375.21875 128.378906 L 281.039062 361.3125 L 100.953125 288.496094 Z M 195.132812 55.566406 " clip-rule="nonzero"/></clipPath><clipPath id="170894b53d"><path d="M 195.132812 55.566406 L 375.21875 128.378906 L 281.039062 361.3125 L 100.953125 288.496094 Z M 195.132812 55.566406 " clip-rule="nonzero"/></clipPath><clipPath id="2a378716cf"><path d="M 167 172 L 204 172 L 204 207 L 167 207 Z M 167 172 " clip-rule="nonzero"/></clipPath><clipPath id="0c26fb7fe7"><path d="M 195.132812 55.566406 L 375.21875 128.378906 L 281.039062 361.3125 L 100.953125 288.496094 Z M 195.132812 55.566406 " clip-rule="nonzero"/></clipPath><clipPath id="6ea6b840fe"><path d="M 195.132812 55.566406 L 375.21875 128.378906 L 281.039062 361.3125 L 100.953125 288.496094 Z M 195.132812 55.566406 " clip-rule="nonzero"/></clipPath><clipPath id="c357c40dcf"><path d="M 201 186 L 238 186 L 238 221 L 201 221 Z M 201 186 " clip-rule="nonzero"/></clipPath><clipPath id="a4bd0078ba"><path d="M 195.132812 55.566406 L 375.21875 128.378906 L 281.039062 361.3125 L 100.953125 288.496094 Z M 195.132812 55.566406 " clip-rule="nonzero"/></clipPath><clipPath id="d75f2c57fe"><path d="M 195.132812 55.566406 L 375.21875 128.378906 L 281.039062 361.3125 L 100.953125 288.496094 Z M 195.132812 55.566406 " clip-rule="nonzero"/></clipPath><clipPath id="c477a03038"><path d="M 236 200 L 273 200 L 273 235 L 236 235 Z M 236 200 " clip-rule="nonzero"/></clipPath><clipPath id="c739a5534b"><path d="M 195.132812 55.566406 L 375.21875 128.378906 L 281.039062 361.3125 L 100.953125 288.496094 Z M 195.132812 55.566406 " clip-rule="nonzero"/></clipPath><clipPath id="48d663a45b"><path d="M 195.132812 55.566406 L 375.21875 128.378906 L 281.039062 361.3125 L 100.953125 288.496094 Z M 195.132812 55.566406 " clip-rule="nonzero"/></clipPath><clipPath id="cfc8e05ae9"><path d="M 271 214 L 308 214 L 308 249 L 271 249 Z M 271 214 " clip-rule="nonzero"/></clipPath><clipPath id="770e97e9bc"><path d="M 195.132812 55.566406 L 375.21875 128.378906 L 281.039062 361.3125 L 100.953125 288.496094 Z M 195.132812 55.566406 " clip-rule="nonzero"/></clipPath><clipPath id="cf244531a2"><path d="M 195.132812 55.566406 L 375.21875 128.378906 L 281.039062 361.3125 L 100.953125 288.496094 Z M 195.132812 55.566406 " clip-rule="nonzero"/></clipPath><clipPath id="9b2b400a0e"><path d="M 152 207 L 189 207 L 189 243 L 152 243 Z M 152 207 " clip-rule="nonzero"/></clipPath><clipPath id="a7814a9771"><path d="M 195.132812 55.566406 L 375.21875 128.378906 L 281.039062 361.3125 L 100.953125 288.496094 Z M 195.132812 55.566406 " clip-rule="nonzero"/></clipPath><clipPath id="a95e54fd28"><path d="M 195.132812 55.566406 L 375.21875 128.378906 L 281.039062 361.3125 L 100.953125 288.496094 Z M 195.132812 55.566406 " clip-rule="nonzero"/></clipPath><clipPath id="95fc107e38"><path d="M 187 221 L 224 221 L 224 257 L 187 257 Z M 187 221 " clip-rule="nonzero"/></clipPath><clipPath id="1dfce4a784"><path d="M 195.132812 55.566406 L 375.21875 128.378906 L 281.039062 361.3125 L 100.953125 288.496094 Z M 195.132812 55.566406 " clip-rule="nonzero"/></clipPath><clipPath id="7cc34c9352"><path d="M 195.132812 55.566406 L 375.21875 128.378906 L 281.039062 361.3125 L 100.953125 288.496094 Z M 195.132812 55.566406 " clip-rule="nonzero"/></clipPath><clipPath id="783c41c51a"><path d="M 221 235 L 259 235 L 259 271 L 221 271 Z M 221 235 " clip-rule="nonzero"/></clipPath><clipPath id="2506715748"><path d="M 195.132812 55.566406 L 375.21875 128.378906 L 281.039062 361.3125 L 100.953125 288.496094 Z M 195.132812 55.566406 " clip-rule="nonzero"/></clipPath><clipPath id="b269493232"><path d="M 195.132812 55.566406 L 375.21875 128.378906 L 281.039062 361.3125 L 100.953125 288.496094 Z M 195.132812 55.566406 " clip-rule="nonzero"/></clipPath><clipPath id="4294034001"><path d="M 256 250 L 293 250 L 293 285 L 256 285 Z M 256 250 " clip-rule="nonzero"/></clipPath><clipPath id="e9bb80d3fe"><path d="M 195.132812 55.566406 L 375.21875 128.378906 L 281.039062 361.3125 L 100.953125 288.496094 Z M 195.132812 55.566406 " clip-rule="nonzero"/></clipPath><clipPath id="4e8c6497a2"><path d="M 195.132812 55.566406 L 375.21875 128.378906 L 281.039062 361.3125 L 100.953125 288.496094 Z M 195.132812 55.566406 " clip-rule="nonzero"/></clipPath><clipPath id="4e91256162"><path d="M 138 243 L 175 243 L 175 279 L 138 279 Z M 138 243 " clip-rule="nonzero"/></clipPath><clipPath id="0544aba61e"><path d="M 195.132812 55.566406 L 375.21875 128.378906 L 281.039062 361.3125 L 100.953125 288.496094 Z M 195.132812 55.566406 " clip-rule="nonzero"/></clipPath><clipPath id="d03ef19324"><path d="M 195.132812 55.566406 L 375.21875 128.378906 L 281.039062 361.3125 L 100.953125 288.496094 Z M 195.132812 55.566406 " clip-rule="nonzero"/></clipPath><clipPath id="64d397179d"><path d="M 172 257 L 209 257 L 209 293 L 172 293 Z M 172 257 " clip-rule="nonzero"/></clipPath><clipPath id="f5bb601db7"><path d="M 195.132812 55.566406 L 375.21875 128.378906 L 281.039062 361.3125 L 100.953125 288.496094 Z M 195.132812 55.566406 " clip-rule="nonzero"/></clipPath><clipPath id="5c35ce3459"><path d="M 195.132812 55.566406 L 375.21875 128.378906 L 281.039062 361.3125 L 100.953125 288.496094 Z M 195.132812 55.566406 " clip-rule="nonzero"/></clipPath><clipPath id="f4f3b7ef34"><path d="M 207 271 L 244 271 L 244 307 L 207 307 Z M 207 271 " clip-rule="nonzero"/></clipPath><clipPath id="c6f47d2d11"><path d="M 195.132812 55.566406 L 375.21875 128.378906 L 281.039062 361.3125 L 100.953125 288.496094 Z M 195.132812 55.566406 " clip-rule="nonzero"/></clipPath><clipPath id="b3fd3eb5e8"><path d="M 195.132812 55.566406 L 375.21875 128.378906 L 281.039062 361.3125 L 100.953125 288.496094 Z M 195.132812 55.566406 " clip-rule="nonzero"/></clipPath><clipPath id="4556582b7f"><path d="M 242 286 L 279 286 L 279 321 L 242 321 Z M 242 286 " clip-rule="nonzero"/></clipPath><clipPath id="2618da4c40"><path d="M 195.132812 55.566406 L 375.21875 128.378906 L 281.039062 361.3125 L 100.953125 288.496094 Z M 195.132812 55.566406 " clip-rule="nonzero"/></clipPath><clipPath id="76f206a45c"><path d="M 195.132812 55.566406 L 375.21875 128.378906 L 281.039062 361.3125 L 100.953125 288.496094 Z M 195.132812 55.566406 " clip-rule="nonzero"/></clipPath><clipPath id="92377833cd"><path d="M 198 87 L 341 87 L 341 173 L 198 173 Z M 198 87 " clip-rule="nonzero"/></clipPath><clipPath id="4130e0e0b7"><path d="M 195.132812 55.566406 L 375.21875 128.378906 L 281.039062 361.3125 L 100.953125 288.496094 Z M 195.132812 55.566406 " clip-rule="nonzero"/></clipPath><clipPath id="35c0007340"><path d="M 195.132812 55.566406 L 375.21875 128.378906 L 281.039062 361.3125 L 100.953125 288.496094 Z M 195.132812 55.566406 " clip-rule="nonzero"/></clipPath></defs><g clip-path="url(#b53769b521)"><path fill="#032c69" d="M 233.632812 319.574219 C 230.261719 324.773438 225.066406 328.34375 219.007812 329.636719 L 72.257812 360.90625 C 71.507812 361.066406 70.753906 361.144531 70.007812 361.144531 C 67.96875 361.144531 65.96875 360.554688 64.21875 359.421875 C 61.824219 357.871094 60.179688 355.476562 59.582031 352.683594 L 7.589844 108.738281 C 6.363281 102.976562 10.050781 97.300781 15.808594 96.066406 L 66.042969 85.359375 L 66.839844 85.1875 L 62.515625 50.644531 C 61.097656 39.289062 69.183594 28.886719 80.542969 27.46875 L 170.105469 16.273438 C 170.96875 16.164062 171.847656 16.109375 172.703125 16.109375 C 183.136719 16.109375 191.984375 23.933594 193.285156 34.300781 L 212.476562 187.738281 L 214.460938 197.039062 L 236.855469 302.109375 C 238.148438 308.175781 237 314.378906 233.632812 319.574219 Z M 233.632812 319.574219 " fill-opacity="1" fill-rule="nonzero"/></g><path fill="#ffdf59" d="M 66.042969 85.367188 L 61.714844 50.757812 C 60.234375 38.929688 68.625 28.144531 80.449219 26.671875 L 87.226562 80.859375 Z M 190.074219 82.65625 L 214.460938 197.046875 L 194.09375 34.203125 C 192.613281 22.375 181.828125 13.992188 170.007812 15.472656 L 176.335938 66.105469 C 183.109375 68.949219 188.4375 74.945312 190.074219 82.65625 Z M 190.074219 82.65625 " fill-opacity="1" fill-rule="nonzero"/><path fill="#ffffff" d="M 87.234375 80.851562 L 162.554688 64.804688 C 167.351562 63.78125 172.125 64.332031 176.335938 66.105469 L 170.007812 15.472656 L 80.453125 26.664062 Z M 161.019531 22.527344 C 161.109375 23.324219 161.179688 24.117188 161.253906 24.90625 C 161.585938 28.289062 161.96875 31.664062 162.335938 35.039062 C 162.5625 37.164062 162.882812 39.316406 162.875 41.453125 C 162.875 41.75 162.398438 41.8125 162.335938 41.523438 C 162.160156 40.753906 162.050781 39.980469 161.949219 39.199219 C 161.171875 33.664062 160.578125 28.082031 159.960938 22.519531 C 159.886719 21.878906 160.953125 21.886719 161.019531 22.527344 Z M 157.625 23.019531 C 157.609375 22.886719 157.421875 22.167969 157.601562 22.804688 C 157.617188 22.847656 157.636719 22.882812 157.644531 22.921875 C 157.699219 23.117188 157.707031 23.335938 157.726562 23.539062 C 157.789062 24.042969 157.851562 24.554688 157.914062 25.058594 C 158.292969 28.207031 158.675781 31.359375 159.054688 34.507812 C 159.339844 36.851562 159.886719 39.355469 159.761719 41.730469 C 159.714844 42.636719 158.386719 42.816406 158.113281 41.945312 C 157.804688 40.941406 157.699219 39.835938 157.546875 38.796875 C 157.050781 35.492188 156.695312 32.148438 156.273438 28.828125 C 156.101562 27.460938 155.921875 26.082031 155.75 24.714844 C 155.695312 24.304688 155.625 23.890625 155.589844 23.476562 C 155.582031 23.363281 155.570312 23.253906 155.570312 23.144531 C 155.5625 22.976562 155.519531 22.542969 155.582031 23.027344 C 155.429688 21.773438 157.472656 21.78125 157.625 23.019531 Z M 153.425781 23.351562 C 153.363281 22.757812 154.332031 22.761719 154.398438 23.351562 C 154.367188 23.027344 154.398438 23.234375 154.441406 23.414062 C 154.476562 23.585938 154.484375 23.773438 154.503906 23.945312 C 154.558594 24.5 154.519531 25.054688 154.550781 25.605469 C 154.765625 29.042969 155.339844 32.453125 155.722656 35.871094 C 155.957031 37.996094 156.335938 40.144531 156.207031 42.28125 C 156.191406 42.503906 155.859375 42.558594 155.789062 42.339844 C 155.570312 41.5625 155.429688 40.808594 155.320312 40.015625 C 154.828125 36.625 154.59375 33.179688 154.269531 29.769531 C 154.125 28.269531 154.019531 26.714844 153.703125 25.234375 C 153.605469 24.78125 153.492188 24.339844 153.453125 23.878906 C 153.4375 23.738281 153.425781 23.605469 153.425781 23.46875 C 153.410156 23.394531 153.398438 23.128906 153.425781 23.351562 Z M 152.171875 23.636719 C 152.261719 24.417969 152.34375 25.203125 152.433594 25.988281 C 152.816406 29.398438 153.246094 32.808594 153.652344 36.210938 C 153.902344 38.304688 154.226562 40.429688 154.234375 42.546875 C 154.234375 42.890625 153.679688 42.96875 153.597656 42.628906 C 153.410156 41.839844 153.300781 41.042969 153.183594 40.25 C 152.375 34.738281 151.820312 29.167969 151.164062 23.636719 C 151.09375 23.019531 152.101562 23.019531 152.171875 23.636719 Z M 149.203125 24.691406 C 149.289062 25.460938 149.382812 26.230469 149.472656 27.003906 C 149.847656 30.269531 150.230469 33.539062 150.492188 36.820312 C 150.65625 38.90625 150.617188 40.941406 150.582031 43.03125 C 150.574219 43.5625 149.738281 43.679688 149.605469 43.15625 C 149.425781 42.40625 149.199219 41.679688 149.023438 40.933594 C 147.808594 35.628906 147.453125 30.101562 146.847656 24.699219 C 146.679688 23.246094 149.046875 23.261719 149.203125 24.691406 Z M 145.324219 24.367188 C 145.441406 25.171875 145.550781 25.972656 145.667969 26.773438 C 146.160156 30.179688 146.652344 33.589844 147.136719 36.992188 C 147.441406 39.101562 147.746094 41.210938 147.820312 43.335938 C 147.828125 43.582031 147.433594 43.625 147.371094 43.390625 C 147.179688 42.621094 146.992188 41.867188 146.867188 41.09375 C 145.980469 35.609375 145.21875 30.101562 144.425781 24.597656 C 144.339844 24.027344 145.242188 23.808594 145.324219 24.367188 Z M 141.707031 24.789062 C 141.589844 23.960938 142.964844 23.96875 143.074219 24.789062 C 143.019531 24.375 143.0625 24.546875 143.117188 24.796875 C 143.160156 24.984375 143.171875 25.183594 143.199219 25.371094 C 143.277344 25.9375 143.351562 26.503906 143.433594 27.074219 C 143.898438 30.460938 144.367188 33.851562 144.796875 37.246094 C 145.066406 39.378906 145.15625 41.523438 145.34375 43.660156 C 145.371094 44 144.792969 44.066406 144.730469 43.734375 C 144.578125 42.941406 144.429688 42.152344 144.257812 41.363281 C 143.519531 38.007812 143.070312 34.605469 142.585938 31.203125 C 142.375 29.722656 142.167969 28.25 141.953125 26.769531 C 141.890625 26.320312 141.832031 25.867188 141.761719 25.417969 C 141.734375 25.246094 141.710938 25.074219 141.707031 24.902344 C 141.691406 24.796875 141.664062 24.472656 141.707031 24.789062 Z M 136.863281 25.550781 C 136.972656 26.332031 137.085938 27.113281 137.195312 27.894531 C 137.964844 33.375 138.910156 38.886719 139.125 44.414062 C 139.132812 44.601562 138.835938 44.632812 138.785156 44.453125 C 138.59375 43.667969 138.378906 42.90625 138.234375 42.101562 C 137.265625 36.605469 136.511719 31.078125 135.734375 25.550781 C 135.644531 24.875 136.765625 24.878906 136.863281 25.550781 Z M 134.941406 26.304688 C 134.890625 25.875 134.96875 26.382812 134.980469 26.492188 C 135.003906 26.644531 135.015625 26.796875 135.03125 26.949219 C 135.09375 27.5 135.15625 28.046875 135.214844 28.601562 C 135.589844 31.929688 135.964844 35.253906 136.335938 38.574219 C 136.503906 40.027344 136.667969 41.480469 136.792969 42.941406 C 136.84375 43.527344 136.96875 44.164062 136.917969 44.757812 C 136.847656 45.492188 135.8125 45.652344 135.570312 44.933594 C 135.328125 44.207031 135.304688 43.355469 135.195312 42.601562 C 134.402344 37.191406 133.875 31.734375 133.246094 26.304688 C 133.121094 25.265625 134.816406 25.273438 134.941406 26.304688 Z M 131.09375 26.269531 C 131.058594 26 131.140625 26.410156 131.148438 26.464844 C 131.175781 26.617188 131.191406 26.773438 131.210938 26.925781 C 131.289062 27.488281 131.355469 28.054688 131.433594 28.613281 C 132.160156 34.113281 132.921875 39.605469 133.34375 45.132812 C 133.355469 45.296875 133.070312 45.332031 133.042969 45.175781 C 132.886719 44.386719 132.699219 43.605469 132.519531 42.816406 C 132.160156 41.285156 132.015625 39.675781 131.773438 38.125 C 131.488281 36.300781 131.21875 34.464844 130.949219 32.632812 C 130.636719 30.515625 130.347656 28.386719 130.050781 26.269531 C 129.960938 25.632812 131.003906 25.640625 131.09375 26.269531 Z M 129.066406 26.53125 C 129.03125 26.285156 129.074219 26.503906 129.085938 26.609375 C 129.113281 26.773438 129.136719 26.941406 129.15625 27.105469 C 129.238281 27.6875 129.324219 28.269531 129.40625 28.851562 C 130.1875 34.355469 131.066406 39.855469 131.523438 45.394531 C 131.558594 45.839844 130.804688 45.929688 130.71875 45.5 C 130.5625 44.710938 130.394531 43.914062 130.25 43.125 C 129.21875 37.640625 128.632812 32.058594 127.855469 26.53125 C 127.738281 25.792969 128.964844 25.800781 129.066406 26.53125 Z M 123.492188 27.085938 C 123.394531 26.382812 124.5625 26.386719 124.652344 27.085938 C 124.605469 26.714844 124.644531 26.90625 124.695312 27.121094 C 124.730469 27.300781 124.742188 27.488281 124.757812 27.667969 C 124.820312 28.234375 124.882812 28.800781 124.945312 29.367188 C 125.546875 34.910156 126.394531 40.410156 126.839844 45.960938 C 126.859375 46.230469 126.402344 46.28125 126.355469 46.023438 C 126.203125 45.230469 126.058594 44.441406 125.90625 43.644531 C 125.277344 40.289062 124.886719 36.875 124.417969 33.5 C 124.210938 32.003906 123.988281 30.515625 123.753906 29.03125 C 123.683594 28.582031 123.609375 28.136719 123.539062 27.6875 C 123.511719 27.523438 123.492188 27.363281 123.484375 27.195312 C 123.476562 27.105469 123.457031 26.816406 123.492188 27.085938 Z M 121.207031 27.195312 C 121.207031 27.191406 121.214844 27.183594 121.222656 27.175781 C 121.3125 26.824219 121.804688 26.761719 122.105469 26.96875 C 122.09375 26.949219 122.078125 26.921875 122.066406 26.898438 C 122.757812 27.355469 122.652344 28.78125 122.742188 29.527344 C 123.40625 35.101562 123.933594 40.683594 124.507812 46.265625 C 124.550781 46.652344 123.851562 46.738281 123.796875 46.355469 C 123.675781 45.554688 123.574219 44.753906 123.429688 43.964844 C 122.800781 40.566406 122.355469 37.128906 121.90625 33.699219 C 121.707031 32.191406 121.511719 30.675781 121.3125 29.167969 C 121.257812 28.71875 121.171875 28.269531 121.132812 27.820312 C 121.109375 27.578125 121.097656 27.433594 121.207031 27.195312 Z M 118.199219 27.023438 C 118.953125 27.023438 119.445312 27.585938 119.535156 28.289062 C 119.625 29.03125 119.71875 29.761719 119.808594 30.503906 C 120.21875 33.710938 120.613281 36.914062 121 40.125 C 121.234375 42.070312 121.664062 44.128906 121.464844 46.085938 C 121.347656 47.214844 119.816406 47.421875 119.421875 46.351562 C 119.160156 45.625 119.042969 44.898438 118.910156 44.136719 C 117.996094 38.902344 117.527344 33.5625 116.871094 28.289062 C 116.773438 27.578125 117.574219 27.023438 118.199219 27.023438 Z M 113.785156 27.589844 C 114.53125 27.597656 115.007812 28.136719 115.097656 28.84375 C 115.203125 29.671875 115.308594 30.496094 115.410156 31.328125 C 115.839844 34.757812 116.28125 38.175781 116.621094 41.613281 C 116.757812 43.03125 116.941406 44.46875 116.917969 45.894531 C 116.910156 46.5625 116.996094 47.539062 116.242188 47.808594 C 115.300781 48.140625 114.988281 46.371094 114.851562 45.789062 C 114.054688 42.449219 113.730469 38.949219 113.308594 35.546875 C 113.03125 33.3125 112.746094 31.078125 112.46875 28.851562 C 112.386719 28.144531 113.175781 27.585938 113.785156 27.589844 Z M 110.886719 28.644531 C 111.003906 29.457031 111.121094 30.273438 111.226562 31.089844 C 111.675781 34.480469 112.046875 37.875 112.511719 41.257812 C 112.71875 42.753906 112.925781 44.253906 113.105469 45.75 C 113.183594 46.355469 113.363281 47.046875 113.292969 47.664062 C 113.253906 48.042969 112.761719 48.09375 112.621094 47.753906 C 112.332031 47.054688 112.320312 46.171875 112.195312 45.4375 C 111.632812 42.054688 111.21875 38.644531 110.636719 35.269531 C 110.277344 33.171875 109.910156 31.085938 109.613281 28.980469 C 109.503906 28.171875 110.777344 27.855469 110.886719 28.644531 Z M 107.550781 29.078125 C 107.457031 28.386719 108.597656 28.394531 108.695312 29.078125 C 108.636719 28.710938 108.6875 28.90625 108.734375 29.113281 C 108.777344 29.292969 108.785156 29.480469 108.8125 29.660156 C 108.886719 30.226562 108.964844 30.792969 109.039062 31.355469 C 109.773438 36.859375 110.726562 42.378906 110.988281 47.933594 C 110.996094 48.15625 110.644531 48.191406 110.597656 47.980469 C 110.410156 47.199219 110.222656 46.414062 110.0625 45.625 C 109.378906 42.261719 108.957031 38.839844 108.457031 35.441406 C 108.242188 33.96875 108.03125 32.488281 107.808594 31.015625 C 107.738281 30.566406 107.675781 30.117188 107.605469 29.671875 C 107.585938 29.507812 107.558594 29.347656 107.550781 29.183594 C 107.539062 29.097656 107.511719 28.816406 107.550781 29.078125 Z M 106.605469 29.847656 C 106.699219 30.605469 106.734375 31.375 106.804688 32.136719 C 107.273438 37.515625 108.089844 42.878906 108.347656 48.28125 C 108.363281 48.578125 107.863281 48.640625 107.808594 48.347656 C 107.648438 47.582031 107.460938 46.8125 107.335938 46.039062 C 106.785156 42.738281 106.382812 39.414062 105.898438 36.097656 C 105.59375 34.015625 105.191406 31.933594 104.9375 29.847656 C 104.796875 28.824219 106.480469 28.828125 106.605469 29.847656 Z M 99.609375 29.5 C 99.601562 29.515625 99.597656 29.527344 99.589844 29.550781 C 99.691406 29.472656 99.824219 29.445312 99.933594 29.472656 C 99.933594 29.464844 99.957031 29.472656 99.984375 29.488281 C 100.019531 29.5 100.054688 29.527344 100.082031 29.554688 C 100.09375 29.5625 100.109375 29.570312 100.117188 29.578125 C 100.398438 29.777344 100.480469 29.957031 100.550781 30.296875 C 100.648438 30.816406 100.6875 31.347656 100.765625 31.871094 C 101.230469 35.339844 101.714844 38.804688 102.140625 42.277344 C 102.417969 44.480469 102.855469 46.738281 102.8125 48.964844 C 102.804688 49.253906 102.378906 49.304688 102.289062 49.035156 C 102.039062 48.246094 101.871094 47.449219 101.734375 46.640625 C 101.152344 43.132812 100.597656 39.625 100.066406 36.121094 C 99.839844 34.605469 99.601562 33.089844 99.375 31.574219 C 99.269531 30.90625 98.925781 29.949219 99.609375 29.5 Z M 96.703125 30.421875 C 96.609375 29.617188 97.921875 29.625 98.019531 30.421875 C 97.976562 30.074219 98.0625 30.542969 98.074219 30.613281 C 98.101562 30.765625 98.117188 30.925781 98.128906 31.078125 C 98.199219 31.644531 98.269531 32.203125 98.335938 32.773438 C 98.757812 36.175781 99.152344 39.585938 99.554688 42.988281 C 99.796875 45.035156 100.253906 47.257812 100.09375 49.316406 C 100.066406 49.71875 99.492188 49.792969 99.359375 49.414062 C 99.105469 48.644531 99.015625 47.84375 98.890625 47.042969 C 98.359375 43.652344 97.941406 40.242188 97.492188 36.839844 C 97.292969 35.339844 97.105469 33.835938 96.914062 32.335938 C 96.851562 31.867188 96.789062 31.402344 96.730469 30.933594 C 96.71875 30.800781 96.703125 30.667969 96.691406 30.53125 C 96.691406 30.433594 96.664062 30.109375 96.703125 30.421875 Z M 95.023438 31.050781 C 95.148438 32.054688 95.273438 33.0625 95.390625 34.066406 C 95.777344 37.242188 96.234375 40.414062 96.550781 43.605469 C 96.730469 45.417969 97.09375 47.3125 96.914062 49.128906 C 96.824219 49.988281 95.652344 50.148438 95.355469 49.332031 C 95.113281 48.660156 94.976562 48.011719 94.863281 47.304688 C 94.035156 41.902344 93.382812 36.472656 92.691406 31.058594 C 92.519531 29.640625 94.851562 29.640625 95.023438 31.050781 Z M 89.441406 31.359375 C 89.378906 30.875 90.179688 30.875 90.242188 31.359375 C 90.207031 31.097656 90.195312 31.089844 90.277344 31.328125 C 90.347656 31.507812 90.359375 31.6875 90.382812 31.878906 C 90.449219 32.425781 90.519531 32.972656 90.589844 33.527344 C 91.292969 39.09375 91.820312 44.683594 92.449219 50.257812 C 92.472656 50.464844 92.105469 50.507812 92.078125 50.304688 C 91.960938 49.503906 91.847656 48.703125 91.730469 47.898438 C 91.246094 44.496094 90.664062 41.101562 90.195312 37.691406 C 89.988281 36.183594 89.792969 34.675781 89.59375 33.160156 C 89.539062 32.710938 89.453125 32.261719 89.421875 31.8125 C 89.40625 31.652344 89.414062 31.519531 89.421875 31.359375 C 89.433594 31.222656 89.40625 31.097656 89.441406 31.359375 Z M 99.941406 29.472656 C 99.957031 29.480469 99.976562 29.480469 99.992188 29.488281 C 100.019531 29.5 100.046875 29.519531 100.074219 29.550781 C 100.058594 29.542969 100.054688 29.535156 100.039062 29.527344 C 99.964844 29.492188 99.941406 29.480469 99.941406 29.472656 Z M 100.113281 29.609375 C 100.136719 29.640625 100.148438 29.671875 100.15625 29.714844 C 100.148438 29.671875 100.136719 29.640625 100.113281 29.609375 Z M 110.5 263.585938 C 115.160156 265.324219 120.136719 266.148438 125.15625 266.148438 C 140.351562 266.148438 155.984375 258.609375 164.757812 245.921875 C 174.171875 232.304688 175.332031 213.839844 167.722656 198.910156 C 160.910156 185.539062 148.527344 177.667969 133.730469 177.308594 C 116.898438 176.90625 101.609375 182.6875 91.808594 193.175781 C 87.207031 198.097656 84.046875 204.503906 82.660156 211.710938 C 78.425781 233.796875 90.394531 256.105469 110.5 263.585938 Z M 83.046875 212.90625 L 82.945312 212.90625 C 82.957031 210.320312 84.445312 207.707031 86.8125 205.992188 C 88.390625 201.757812 90.679688 197.96875 93.597656 194.835938 C 101.035156 186.878906 111.839844 181.789062 124.085938 180.234375 C 124.183594 180.113281 124.285156 179.996094 124.417969 179.894531 C 126.320312 178.359375 132.117188 178.089844 133.507812 178.910156 C 133.902344 179.148438 134.226562 179.445312 134.503906 179.777344 C 143.988281 180.199219 152.375 183.941406 158.695312 190.394531 C 163.449219 193.796875 167.507812 202.511719 168.015625 203.625 C 169.640625 207.203125 170.734375 210.964844 171.265625 214.796875 C 171.535156 216.738281 171.660156 218.691406 171.640625 220.605469 C 171.632812 220.925781 171.542969 221.527344 171.425781 222.292969 C 171.273438 223.269531 170.953125 225.308594 171.121094 225.664062 L 170.464844 226.132812 C 170.285156 225.898438 170.125 225.648438 169.957031 225.40625 C 169.308594 230.664062 167.71875 235.796875 165.210938 240.484375 C 165.566406 241.203125 165.835938 241.964844 165.972656 242.761719 L 166.015625 242.976562 L 160.894531 247.960938 C 157.714844 251.0625 154.449219 254.234375 150.851562 256.921875 C 150.679688 257.050781 150.441406 257.238281 150.160156 257.464844 C 148.472656 258.835938 146.734375 260.15625 145.550781 260.15625 C 145.421875 260.15625 145.304688 260.144531 145.183594 260.109375 C 144.882812 260.027344 144.617188 259.816406 144.390625 259.519531 C 133.929688 264.222656 121.816406 265.179688 111.363281 261.292969 C 109.820312 260.71875 108.332031 260.039062 106.894531 259.285156 L 107.046875 260.542969 L 106.410156 260.289062 C 99.554688 257.542969 93.765625 252.160156 90.527344 245.527344 C 90.203125 244.855469 89.691406 244.019531 89.144531 243.132812 C 88.09375 241.414062 86.894531 239.453125 86.644531 238.035156 C 86.515625 237.3125 86.644531 236.667969 87.011719 236.113281 C 85.378906 231.625 84.433594 226.839844 84.292969 221.925781 C 83.878906 221.195312 83.539062 220.433594 83.269531 219.636719 C 82.578125 217.625 82.40625 215.15625 83.046875 212.90625 Z M 65.664062 172.636719 C 65.753906 172.625 65.851562 172.601562 65.941406 172.589844 C 65.78125 172.671875 65.609375 172.722656 65.429688 172.699219 C 65.402344 172.699219 65.375 172.6875 65.347656 172.6875 C 65.457031 172.664062 65.558594 172.660156 65.664062 172.636719 Z M 64.507812 165.382812 C 64.621094 165.367188 64.738281 165.355469 64.847656 165.332031 C 65.414062 167.171875 66.039062 169.007812 66.507812 170.867188 C 66.085938 170.972656 65.664062 171.066406 65.242188 171.171875 C 64.867188 171.261719 64.507812 171.394531 64.15625 171.539062 C 63.445312 169.359375 62.972656 167.054688 62.433594 164.835938 C 62.148438 163.679688 61.859375 162.527344 61.660156 161.351562 C 61.492188 160.375 61.394531 159.40625 61.292969 158.429688 C 61.375 158.636719 61.570312 158.796875 61.84375 158.777344 C 62.113281 158.761719 62.378906 158.6875 62.648438 158.597656 C 62.972656 159.425781 63.304688 160.257812 63.59375 161.109375 C 63.824219 161.773438 64.019531 162.449219 64.203125 163.128906 C 63.699219 163.273438 63.285156 163.640625 63.292969 164.226562 C 63.292969 164.316406 63.3125 164.449219 63.332031 164.539062 C 63.4375 164.996094 64.019531 165.445312 64.507812 165.382812 Z M 61.402344 157.773438 C 61.320312 157.863281 61.269531 157.972656 61.25 158.09375 C 61.238281 157.980469 61.230469 157.878906 61.214844 157.765625 C 61.160156 157.304688 61.671875 157.1875 62.011719 157.359375 C 61.78125 157.460938 61.570312 157.59375 61.402344 157.773438 Z M 65.242188 171.171875 C 65.664062 171.066406 66.085938 170.972656 66.507812 170.867188 C 66.550781 170.859375 66.585938 170.847656 66.625 170.839844 C 67.070312 170.734375 67.511719 170.964844 67.65625 171.394531 C 67.792969 171.792969 67.484375 172.292969 67.070312 172.375 C 66.695312 172.445312 66.3125 172.511719 65.941406 172.582031 C 65.851562 172.597656 65.753906 172.617188 65.664062 172.632812 C 65.558594 172.652344 65.449219 172.660156 65.347656 172.671875 C 64.9375 172.734375 64.53125 172.769531 64.113281 172.769531 C 63.84375 172.769531 63.601562 172.589844 63.519531 172.339844 C 63.4375 172.105469 63.574219 171.78125 63.804688 171.675781 C 63.921875 171.621094 64.039062 171.578125 64.15625 171.53125 C 64.507812 171.394531 64.867188 171.261719 65.242188 171.171875 Z M 70.664062 157.128906 C 71.675781 158.167969 72.144531 159.683594 71.765625 161.09375 C 70.964844 164.074219 67.550781 164.960938 64.847656 165.332031 C 64.730469 165.347656 64.621094 165.367188 64.507812 165.382812 C 64.023438 165.445312 63.445312 164.988281 63.332031 164.53125 C 63.3125 164.441406 63.292969 164.308594 63.292969 164.21875 C 63.292969 163.632812 63.707031 163.265625 64.203125 163.121094 C 64.300781 163.09375 64.40625 163.070312 64.507812 163.058594 C 65.035156 163.007812 65.699219 162.898438 66.363281 162.753906 C 66.679688 162.683594 66.992188 162.601562 67.296875 162.503906 C 67.636719 162.402344 67.726562 162.367188 67.96875 162.253906 C 68.804688 161.855469 69.59375 161.15625 69.726562 160.265625 C 69.835938 159.53125 69.449219 158.609375 68.8125 158.183594 C 67.851562 157.53125 66.4375 157.855469 65.359375 157.96875 C 64.800781 158.03125 64.246094 158.121094 63.699219 158.25 C 63.347656 158.332031 63 158.480469 62.640625 158.589844 C 62.378906 158.679688 62.109375 158.75 61.839844 158.769531 C 61.5625 158.785156 61.367188 158.632812 61.285156 158.425781 C 61.242188 158.320312 61.230469 158.195312 61.25 158.085938 C 61.269531 157.972656 61.320312 157.863281 61.402344 157.765625 C 61.570312 157.585938 61.78125 157.457031 62.011719 157.351562 C 62.21875 157.253906 62.433594 157.179688 62.628906 157.097656 C 63.015625 156.945312 63.414062 156.804688 63.816406 156.695312 C 64.621094 156.464844 65.4375 156.246094 66.253906 156.066406 C 67.792969 155.726562 69.523438 155.953125 70.664062 157.128906 Z M 113.507812 154.6875 C 114.101562 156.617188 114.773438 158.542969 115.25 160.5 C 114.828125 160.601562 114.40625 160.699219 113.980469 160.804688 C 113.613281 160.894531 113.257812 161.019531 112.90625 161.164062 C 112.898438 161.148438 112.894531 161.140625 112.894531 161.136719 C 112.144531 158.921875 111.675781 156.570312 111.121094 154.300781 C 110.84375 153.160156 110.5625 152.027344 110.367188 150.871094 C 110.203125 149.894531 110.113281 148.933594 110.015625 147.964844 C 110.082031 148.195312 110.285156 148.375 110.566406 148.359375 C 110.839844 148.347656 111.101562 148.269531 111.363281 148.1875 C 111.683594 148.996094 112.007812 149.796875 112.289062 150.628906 C 112.503906 151.257812 112.691406 151.894531 112.871094 152.53125 C 112.484375 152.640625 112.105469 152.882812 112.027344 153.296875 C 111.964844 153.652344 112.007812 153.859375 112.144531 154.175781 C 112.378906 154.675781 113.039062 154.75 113.507812 154.6875 Z M 109.988281 147.710938 C 109.972656 147.597656 109.964844 147.496094 109.953125 147.382812 C 109.898438 146.933594 110.382812 146.808594 110.71875 146.96875 C 110.507812 147.074219 110.296875 147.199219 110.140625 147.363281 C 110.050781 147.460938 110 147.585938 109.988281 147.710938 Z M 113.980469 160.804688 C 114.402344 160.699219 114.824219 160.601562 115.25 160.5 C 115.285156 160.492188 115.328125 160.476562 115.363281 160.472656 C 115.796875 160.367188 116.234375 160.597656 116.378906 161.019531 C 116.511719 161.410156 116.214844 161.902344 115.804688 161.980469 C 115.335938 162.070312 114.871094 162.152344 114.402344 162.242188 C 113.890625 162.339844 113.375 162.378906 112.851562 162.386719 C 112.582031 162.386719 112.347656 162.214844 112.261719 161.964844 C 112.1875 161.738281 112.320312 161.410156 112.539062 161.316406 C 112.664062 161.257812 112.789062 161.21875 112.90625 161.164062 C 113.257812 161.019531 113.613281 160.894531 113.980469 160.804688 Z M 141.410156 155.074219 C 141.386719 155 141.375 154.925781 141.351562 154.839844 C 141.414062 154.828125 141.46875 154.8125 141.53125 154.800781 C 141.96875 154.695312 142.40625 154.925781 142.550781 155.347656 C 142.679688 155.738281 142.382812 156.230469 141.976562 156.308594 C 141.503906 156.398438 141.042969 156.480469 140.570312 156.570312 C 140.058594 156.667969 139.546875 156.707031 139.023438 156.714844 C 138.75 156.714844 138.515625 156.542969 138.433594 156.292969 C 138.359375 156.066406 138.488281 155.738281 138.710938 155.644531 C 138.925781 155.546875 139.140625 155.464844 139.355469 155.378906 C 139.375 155.457031 139.386719 155.527344 139.410156 155.601562 C 139.699219 156.832031 141.71875 156.34375 141.410156 155.074219 Z M 150.277344 152.945312 C 150.402344 152.917969 150.53125 152.882812 150.65625 152.855469 C 151.09375 152.753906 151.527344 152.980469 151.675781 153.402344 C 151.804688 153.796875 151.507812 154.289062 151.101562 154.363281 C 150.628906 154.453125 150.167969 154.535156 149.695312 154.625 C 149.183594 154.722656 148.671875 154.765625 148.144531 154.773438 C 147.875 154.773438 147.640625 154.597656 147.558594 154.351562 C 147.480469 154.121094 147.613281 153.796875 147.835938 153.699219 C 147.992188 153.628906 148.144531 153.566406 148.304688 153.507812 C 148.429688 153.644531 148.546875 153.78125 148.671875 153.914062 C 149.023438 154.292969 149.703125 154.253906 150.0625 153.914062 C 150.347656 153.644531 150.394531 153.277344 150.277344 152.945312 Z M 158.289062 151.480469 C 158.265625 151.402344 158.253906 151.328125 158.234375 151.25 C 158.335938 151.222656 158.433594 151.203125 158.535156 151.175781 C 158.972656 151.070312 159.410156 151.300781 159.554688 151.722656 C 159.683594 152.117188 159.386719 152.605469 158.980469 152.683594 C 158.507812 152.773438 158.046875 152.855469 157.574219 152.945312 C 157.0625 153.042969 156.550781 153.085938 156.027344 153.089844 C 155.757812 153.089844 155.519531 152.917969 155.4375 152.667969 C 155.363281 152.441406 155.492188 152.117188 155.714844 152.019531 C 155.886719 151.941406 156.058594 151.875 156.234375 151.804688 C 156.246094 151.875 156.269531 151.9375 156.28125 152.003906 C 156.574219 153.234375 158.59375 152.746094 158.289062 151.480469 Z M 110.140625 147.363281 C 110.296875 147.191406 110.507812 147.066406 110.71875 146.96875 C 110.929688 146.871094 111.15625 146.789062 111.363281 146.707031 C 111.730469 146.5625 112.109375 146.4375 112.492188 146.328125 C 113.265625 146.105469 114.054688 145.898438 114.84375 145.710938 C 116.394531 145.335938 118.117188 145.480469 119.320312 146.625 C 120.335938 147.585938 120.808594 149.042969 120.480469 150.40625 C 119.769531 153.410156 116.152344 154.351562 113.515625 154.6875 C 113.042969 154.75 112.394531 154.675781 112.160156 154.164062 C 112.019531 153.851562 111.972656 153.636719 112.042969 153.285156 C 112.117188 152.863281 112.5 152.621094 112.886719 152.515625 C 112.988281 152.488281 113.101562 152.460938 113.195312 152.453125 C 113.714844 152.40625 114.34375 152.300781 114.980469 152.15625 C 115.300781 152.089844 115.613281 152.003906 115.921875 151.914062 C 116.066406 151.875 116.214844 151.824219 116.359375 151.777344 C 116.378906 151.769531 116.449219 151.742188 116.460938 151.742188 C 116.511719 151.722656 116.566406 151.699219 116.613281 151.671875 C 117.457031 151.285156 118.300781 150.609375 118.449219 149.707031 C 118.570312 148.96875 118.15625 148.082031 117.457031 147.675781 C 116.519531 147.136719 115.09375 147.445312 114.019531 147.558594 C 113.460938 147.621094 112.90625 147.714844 112.359375 147.847656 C 112.027344 147.929688 111.703125 148.0625 111.371094 148.167969 C 111.109375 148.25 110.84375 148.324219 110.574219 148.339844 C 110.285156 148.351562 110.089844 148.171875 110.023438 147.945312 C 109.992188 147.863281 109.988281 147.777344 109.992188 147.695312 C 110 147.585938 110.050781 147.460938 110.140625 147.363281 Z M 75.003906 169.773438 C 74.933594 169.796875 74.863281 169.816406 74.796875 169.835938 C 74.710938 167.320312 74.601562 164.816406 74.679688 162.296875 C 74.753906 159.808594 74.996094 157.308594 75.265625 154.828125 C 75.355469 154.820312 75.4375 154.8125 75.527344 154.804688 C 75.820312 154.777344 76.097656 154.730469 76.378906 154.667969 C 76.613281 154.613281 76.851562 154.558594 77.09375 154.503906 C 77.203125 154.472656 77.328125 154.445312 77.445312 154.410156 C 78.953125 157.0625 80.660156 159.59375 82.390625 162.097656 C 83.144531 163.191406 83.90625 164.277344 84.679688 165.355469 C 84.992188 165.789062 85.34375 166.207031 85.484375 166.667969 C 85.46875 166.667969 85.449219 166.667969 85.433594 166.667969 C 85.097656 166.757812 84.75 166.839844 84.417969 166.945312 C 84.128906 167.035156 83.84375 167.1875 83.566406 167.3125 C 83.484375 167.347656 83.402344 167.386719 83.324219 167.429688 C 83.082031 167.132812 82.875 166.773438 82.667969 166.476562 C 82.082031 165.625 81.507812 164.757812 80.933594 163.902344 C 81.085938 163.824219 81.195312 163.722656 81.320312 163.613281 C 81.554688 163.402344 81.609375 163.039062 81.484375 162.761719 C 81.347656 162.449219 81.0625 162.3125 80.738281 162.285156 C 80.875 162.296875 80.8125 162.285156 80.558594 162.253906 C 80.449219 162.269531 80.328125 162.285156 80.21875 162.304688 C 80.128906 162.332031 80.039062 162.367188 79.949219 162.402344 C 79.941406 162.402344 79.9375 162.40625 79.929688 162.40625 C 78.917969 160.886719 77.914062 159.351562 76.980469 157.78125 C 76.800781 159.335938 76.636719 160.894531 76.464844 162.449219 C 76.429688 162.78125 76.386719 163.121094 76.351562 163.453125 C 76.296875 163.464844 76.242188 163.480469 76.1875 163.492188 C 75.949219 163.550781 75.742188 163.660156 75.527344 163.777344 C 75.140625 163.984375 75.210938 164.621094 75.652344 164.703125 C 75.832031 164.738281 76.011719 164.765625 76.199219 164.773438 C 76.019531 166.378906 75.859375 167.988281 75.757812 169.59375 C 75.722656 169.601562 75.6875 169.609375 75.652344 169.617188 C 75.417969 169.648438 75.210938 169.71875 75.003906 169.773438 Z M 80.902344 163.902344 C 80.757812 163.976562 80.605469 164.011719 80.453125 164.046875 C 80.238281 164.101562 80.019531 164.152344 79.804688 164.199219 C 79.367188 164.296875 78.925781 164.386719 78.484375 164.460938 C 78.027344 164.546875 77.5625 164.613281 77.097656 164.667969 C 76.851562 164.703125 76.59375 164.738281 76.34375 164.757812 C 76.289062 164.765625 76.234375 164.753906 76.179688 164.753906 C 76 164.746094 75.820312 164.71875 75.632812 164.683594 C 75.183594 164.601562 75.121094 163.964844 75.507812 163.757812 C 75.722656 163.644531 75.921875 163.535156 76.164062 163.472656 C 76.222656 163.460938 76.277344 163.445312 76.332031 163.433594 C 76.492188 163.390625 76.65625 163.355469 76.816406 163.3125 C 77.230469 163.210938 77.644531 163.101562 78.0625 162.976562 C 78.476562 162.859375 78.882812 162.726562 79.300781 162.59375 C 79.507812 162.527344 79.714844 162.457031 79.914062 162.386719 C 79.921875 162.386719 79.929688 162.378906 79.9375 162.378906 C 80.027344 162.347656 80.117188 162.3125 80.207031 162.285156 C 80.316406 162.261719 80.425781 162.25 80.542969 162.234375 C 80.808594 162.261719 80.871094 162.269531 80.722656 162.261719 C 81.050781 162.296875 81.332031 162.429688 81.472656 162.738281 C 81.597656 163.015625 81.539062 163.382812 81.304688 163.589844 C 81.167969 163.722656 81.054688 163.824219 80.902344 163.902344 Z M 87.457031 157.59375 C 86.523438 156.597656 86.625 155.070312 87.128906 153.894531 C 87.980469 151.9375 90.230469 150.808594 92.3125 151.125 C 92.3125 150.917969 92.3125 150.703125 92.339844 150.488281 C 92.375 150.109375 92.835938 150 93.058594 150.304688 C 93.410156 150.789062 93.679688 151.285156 93.929688 151.824219 C 94.214844 152.433594 93.714844 153.257812 92.976562 153 C 91.597656 152.53125 90.355469 152.59375 89.414062 153.84375 C 88.796875 154.660156 88.257812 156.375 89.71875 156.582031 C 90.445312 156.6875 91.199219 156.453125 91.917969 156.382812 C 92.566406 156.320312 93.230469 156.355469 93.863281 156.535156 C 94.996094 156.855469 96 157.539062 96.738281 158.453125 C 98.296875 160.386719 98.226562 163.101562 96.691406 165.03125 C 95.078125 167.050781 92.679688 167.324219 90.339844 166.882812 C 90.117188 167.035156 89.925781 167.097656 89.628906 167.132812 C 89.246094 167.171875 88.8125 166.902344 88.625 166.585938 C 88.515625 166.414062 88.417969 166.234375 88.328125 166.046875 C 87.855469 165.132812 88.671875 164.066406 89.695312 164.359375 C 90.96875 164.710938 92.449219 165.140625 93.722656 164.550781 C 94.683594 164.101562 95.398438 163.09375 95.5625 162.054688 C 95.734375 160.984375 95.28125 159.9375 94.476562 159.226562 C 93.445312 158.320312 92.324219 158.394531 91.039062 158.535156 C 89.765625 158.679688 88.375 158.582031 87.457031 157.59375 Z M 99.195312 155.089844 C 98.261719 154.09375 98.363281 152.566406 98.871094 151.390625 C 99.722656 149.433594 101.96875 148.304688 104.050781 148.621094 C 104.050781 148.414062 104.050781 148.199219 104.078125 147.984375 C 104.113281 147.605469 104.578125 147.496094 104.796875 147.800781 C 105.152344 148.285156 105.421875 148.78125 105.671875 149.320312 C 105.953125 149.929688 105.457031 150.753906 104.714844 150.496094 C 103.339844 150.027344 102.09375 150.089844 101.152344 151.339844 C 100.539062 152.15625 99.996094 153.871094 101.457031 154.078125 C 102.183594 154.183594 102.9375 153.949219 103.65625 153.878906 C 104.308594 153.816406 104.972656 153.851562 105.601562 154.03125 C 106.734375 154.351562 107.738281 155.035156 108.480469 155.949219 C 110.035156 157.882812 109.964844 160.597656 108.429688 162.527344 C 106.820312 164.546875 104.417969 164.820312 102.078125 164.378906 C 101.859375 164.53125 101.664062 164.59375 101.367188 164.628906 C 100.988281 164.667969 100.550781 164.398438 100.363281 164.082031 C 100.253906 163.910156 100.15625 163.730469 100.066406 163.542969 C 99.597656 162.628906 100.414062 161.5625 101.4375 161.855469 C 102.710938 162.207031 104.191406 162.636719 105.460938 162.046875 C 106.425781 161.597656 107.136719 160.589844 107.304688 159.550781 C 107.476562 158.480469 107.019531 157.433594 106.21875 156.722656 C 105.1875 155.816406 104.066406 155.890625 102.777344 156.03125 C 101.511719 156.175781 100.121094 156.078125 99.195312 155.089844 Z M 76.222656 170.625 C 76.117188 170.644531 76.019531 170.667969 75.917969 170.695312 C 75.714844 170.742188 75.5 170.757812 75.300781 170.792969 C 75.085938 170.824219 74.871094 170.859375 74.65625 170.894531 C 74.378906 170.945312 74.109375 171 73.863281 170.839844 C 73.695312 170.734375 73.632812 170.535156 73.730469 170.363281 C 73.875 170.105469 74.144531 170.03125 74.410156 169.953125 C 74.539062 169.914062 74.664062 169.878906 74.796875 169.84375 C 74.863281 169.824219 74.933594 169.800781 75.003906 169.78125 C 75.210938 169.726562 75.417969 169.65625 75.625 169.617188 C 75.660156 169.609375 75.695312 169.601562 75.730469 169.59375 C 76.035156 169.53125 76.367188 169.457031 76.601562 169.707031 C 76.726562 169.835938 76.800781 170.03125 76.738281 170.210938 C 76.65625 170.453125 76.476562 170.570312 76.222656 170.625 Z M 75.523438 154.804688 C 75.4375 154.8125 75.347656 154.828125 75.257812 154.828125 C 75.222656 154.828125 75.195312 154.835938 75.164062 154.835938 C 74.960938 154.828125 74.664062 154.683594 74.628906 154.460938 C 74.617188 154.382812 74.609375 154.328125 74.636719 154.246094 C 74.664062 154.15625 74.734375 154.046875 74.796875 153.984375 C 74.886719 153.894531 75.011719 153.867188 75.128906 153.816406 C 75.382812 153.71875 75.632812 153.628906 75.890625 153.554688 C 76.144531 153.476562 76.402344 153.402344 76.664062 153.324219 C 76.796875 153.285156 76.925781 153.242188 77.058594 153.203125 C 77.355469 153.105469 77.625 153.117188 77.875 153.332031 C 78.039062 153.472656 78.082031 153.707031 78.035156 153.90625 C 77.957031 154.210938 77.703125 154.328125 77.429688 154.40625 C 77.3125 154.441406 77.195312 154.46875 77.078125 154.496094 C 76.84375 154.550781 76.609375 154.605469 76.367188 154.660156 C 76.089844 154.722656 75.8125 154.777344 75.523438 154.804688 Z M 85.414062 166.675781 C 85.429688 166.667969 85.449219 166.675781 85.464844 166.675781 C 85.925781 166.578125 86.390625 166.839844 86.542969 167.285156 C 86.703125 167.746094 86.347656 168.230469 85.90625 168.355469 C 85.566406 168.445312 85.226562 168.558594 84.890625 168.632812 C 84.640625 168.6875 84.378906 168.703125 84.128906 168.742188 C 83.84375 168.785156 83.566406 168.828125 83.285156 168.832031 C 82.992188 168.839844 82.730469 168.640625 82.640625 168.371094 C 82.542969 168.078125 82.714844 167.808594 82.945312 167.652344 C 83.0625 167.566406 83.1875 167.503906 83.304688 167.445312 C 83.378906 167.402344 83.464844 167.367188 83.546875 167.324219 C 83.824219 167.203125 84.105469 167.050781 84.398438 166.960938 C 84.730469 166.847656 85.074219 166.765625 85.414062 166.675781 Z M 123.421875 150.414062 C 123.699219 153.492188 124.949219 157.21875 128.097656 158.425781 C 129.65625 159.019531 131.300781 158.734375 132.691406 157.855469 C 134.117188 156.957031 134.953125 155.636719 135.125 153.960938 C 135.304688 152.308594 134.90625 150.585938 134.441406 149.011719 C 133.984375 147.46875 133.515625 145.871094 132.492188 144.589844 C 131.472656 143.324219 130.042969 142.464844 128.402344 142.398438 C 126.894531 142.335938 125.191406 142.976562 124.570312 144.417969 C 123.433594 146.070312 123.269531 148.71875 123.421875 150.414062 Z M 128.402344 144.3125 C 129.34375 144.394531 130.160156 145 130.734375 145.71875 C 131.480469 146.664062 131.8125 147.804688 132.152344 148.933594 C 132.511719 150.125 132.84375 151.339844 132.921875 152.585938 C 132.980469 153.664062 132.871094 154.820312 132.007812 155.574219 C 131.226562 156.257812 130.160156 156.765625 129.121094 156.472656 C 126.902344 155.859375 125.96875 153.050781 125.539062 151.050781 C 125.242188 149.660156 125.21875 148.199219 125.398438 146.789062 C 125.457031 146.359375 125.546875 145.910156 125.691406 145.46875 C 125.820312 145.433594 125.953125 145.386719 126.050781 145.296875 C 126.757812 144.6875 127.425781 144.230469 128.402344 144.3125 Z M 136.71875 143.144531 C 136.628906 142.472656 136.726562 141.949219 136.757812 141.277344 C 136.773438 140.992188 137.125 140.820312 137.355469 140.945312 C 137.167969 141.082031 137 141.242188 136.878906 141.449219 C 136.816406 141.558594 136.847656 141.710938 136.96875 141.769531 C 137.269531 141.921875 137.609375 141.96875 137.957031 141.953125 C 138.074219 142.183594 138.183594 142.410156 138.265625 142.675781 C 138.453125 143.28125 138.640625 143.890625 138.8125 144.5 C 139.007812 145.207031 139.1875 145.910156 139.359375 146.625 C 139.007812 146.679688 138.660156 146.761719 138.363281 146.914062 C 137.574219 147.324219 137.734375 148.589844 138.621094 148.769531 C 139.015625 148.851562 139.449219 148.832031 139.886719 148.769531 C 140.371094 150.792969 140.867188 152.8125 141.367188 154.839844 C 141.386719 154.917969 141.402344 154.992188 141.421875 155.074219 C 141.734375 156.34375 139.707031 156.832031 139.414062 155.601562 C 139.394531 155.527344 139.382812 155.457031 139.359375 155.378906 C 138.8125 153.070312 138.261719 150.761719 137.722656 148.449219 C 137.453125 147.300781 137.195312 146.144531 136.996094 144.976562 C 136.878906 144.367188 136.792969 143.753906 136.71875 143.144531 Z M 154.574219 138.542969 C 154.683594 138.523438 154.792969 138.503906 154.898438 138.484375 C 154.988281 138.667969 155.078125 138.863281 155.140625 139.078125 C 155.328125 139.6875 155.515625 140.292969 155.6875 140.902344 C 156 142.042969 156.273438 143.191406 156.542969 144.339844 C 157.097656 146.644531 157.664062 148.949219 158.226562 151.25 C 158.246094 151.328125 158.261719 151.402344 158.28125 151.480469 C 158.59375 152.746094 156.566406 153.234375 156.273438 152.003906 C 156.261719 151.9375 156.242188 151.875 156.226562 151.804688 C 155.671875 149.488281 155.121094 147.171875 154.578125 144.851562 C 154.308594 143.703125 154.054688 142.550781 153.855469 141.378906 C 153.75 140.773438 153.671875 140.15625 153.589844 139.546875 C 153.554688 139.269531 153.550781 139.015625 153.5625 138.765625 C 153.902344 138.691406 154.234375 138.613281 154.574219 138.542969 Z M 137.355469 140.945312 C 137.742188 140.65625 138.226562 140.460938 138.675781 140.308594 C 139.410156 140.066406 140.164062 139.859375 140.925781 139.726562 C 142.285156 139.484375 143.824219 139.4375 145.035156 140.226562 C 146.390625 141.109375 147.136719 142.757812 146.804688 144.355469 C 146.546875 145.605469 145.621094 146.589844 144.554688 147.273438 C 144.410156 147.148438 144.257812 147.023438 144.113281 146.894531 C 143.789062 146.617188 143.519531 146.359375 143.097656 146.242188 C 142.785156 146.160156 142.464844 146.4375 142.554688 146.753906 C 142.660156 147.148438 142.910156 147.390625 143.171875 147.695312 C 143.226562 147.765625 143.289062 147.835938 143.34375 147.902344 C 142.675781 148.1875 141.988281 148.378906 141.269531 148.519531 C 140.835938 148.601562 140.355469 148.710938 139.871094 148.773438 C 139.4375 148.832031 139.007812 148.859375 138.605469 148.773438 C 137.722656 148.59375 137.5625 147.328125 138.351562 146.921875 C 138.65625 146.761719 138.992188 146.6875 139.347656 146.628906 C 139.832031 146.554688 140.328125 146.519531 140.785156 146.4375 C 141.539062 146.296875 142.328125 146.132812 143.039062 145.847656 C 143.492188 145.667969 144.050781 145.332031 144.429688 144.894531 C 144.527344 144.785156 144.75 144.445312 144.796875 144.328125 C 144.886719 144.125 144.976562 143.753906 144.992188 143.640625 C 145.054688 143.097656 144.949219 142.640625 144.632812 142.167969 C 144.355469 141.761719 143.953125 141.46875 143.582031 141.339844 C 142.5625 140.988281 141.386719 141.179688 140.316406 141.429688 C 139.601562 141.59375 138.746094 141.933594 137.957031 141.960938 C 137.609375 141.976562 137.269531 141.925781 136.96875 141.773438 C 136.847656 141.71875 136.816406 141.558594 136.878906 141.457031 C 136.996094 141.242188 137.167969 141.089844 137.355469 140.945312 Z M 144.105469 146.894531 C 144.25 147.019531 144.402344 147.140625 144.550781 147.273438 C 144.707031 147.414062 144.875 147.550781 145.035156 147.6875 C 145.613281 148.1875 146.175781 148.710938 146.734375 149.238281 C 147.882812 150.308594 148.996094 151.445312 150.054688 152.601562 C 150.152344 152.703125 150.222656 152.828125 150.269531 152.953125 C 150.394531 153.277344 150.347656 153.644531 150.054688 153.921875 C 149.695312 154.261719 149.019531 154.300781 148.664062 153.921875 C 148.539062 153.78125 148.421875 153.644531 148.296875 153.511719 C 147.359375 152.488281 146.421875 151.453125 145.511719 150.40625 C 144.992188 149.8125 144.460938 149.230469 143.953125 148.628906 C 143.753906 148.386719 143.546875 148.152344 143.339844 147.910156 C 143.28125 147.839844 143.222656 147.773438 143.164062 147.703125 C 142.902344 147.398438 142.652344 147.15625 142.550781 146.761719 C 142.464844 146.445312 142.777344 146.160156 143.089844 146.25 C 143.511719 146.355469 143.78125 146.617188 144.105469 146.894531 Z M 148.347656 138.566406 C 148.269531 138.640625 148.222656 138.746094 148.207031 138.847656 C 148.125 138.046875 150.078125 137.578125 150.609375 137.417969 C 151.648438 137.09375 152.734375 136.914062 153.792969 136.691406 C 155.078125 136.421875 156.371094 136.160156 157.664062 135.921875 C 158.203125 135.820312 158.792969 136.046875 158.960938 136.621094 C 158.960938 136.628906 158.960938 136.644531 158.964844 136.648438 C 158.929688 136.621094 158.890625 136.59375 158.847656 136.566406 C 158.773438 136.519531 158.703125 136.476562 158.621094 136.457031 C 158.535156 136.433594 158.453125 136.433594 158.378906 136.457031 C 158.316406 136.46875 158.265625 136.496094 158.21875 136.53125 C 158.171875 136.558594 158.128906 136.601562 158.101562 136.65625 C 158.066406 136.710938 158.050781 136.773438 158.046875 136.835938 C 158.046875 136.824219 158.050781 136.808594 158.050781 136.789062 C 158.039062 136.878906 158.003906 136.960938 158.003906 137.058594 C 158.003906 137.15625 158.039062 137.265625 158.058594 137.363281 C 158.085938 137.480469 158.113281 137.597656 158.144531 137.707031 C 158.15625 137.757812 158.183594 137.796875 158.210938 137.839844 C 157.105469 138.046875 156.003906 138.261719 154.90625 138.476562 C 154.792969 138.496094 154.683594 138.515625 154.578125 138.539062 C 154.242188 138.605469 153.910156 138.683594 153.570312 138.753906 C 152.878906 138.90625 152.1875 139.054688 151.496094 139.175781 C 151.011719 139.257812 150.527344 139.328125 150.042969 139.386719 C 149.902344 139.410156 149.722656 139.4375 149.535156 139.457031 C 149.523438 139.421875 149.53125 139.386719 149.507812 139.359375 C 149.441406 139.257812 149.382812 139.152344 149.328125 139.042969 C 149.292969 138.953125 149.261719 138.863281 149.230469 138.773438 C 149.199219 138.65625 149.101562 138.53125 148.992188 138.476562 C 148.949219 138.460938 148.90625 138.441406 148.867188 138.425781 C 148.796875 138.40625 148.726562 138.40625 148.65625 138.421875 C 148.609375 138.421875 148.566406 138.433594 148.527344 138.453125 C 148.449219 138.484375 148.394531 138.515625 148.347656 138.566406 Z M 148.195312 138.917969 C 148.195312 138.898438 148.207031 138.875 148.207031 138.847656 C 148.222656 138.738281 148.269531 138.640625 148.347656 138.566406 C 148.394531 138.515625 148.449219 138.484375 148.511719 138.460938 C 148.554688 138.441406 148.597656 138.425781 148.644531 138.425781 C 148.714844 138.414062 148.78125 138.414062 148.851562 138.433594 C 148.894531 138.449219 148.933594 138.46875 148.976562 138.484375 C 149.085938 138.539062 149.183594 138.664062 149.21875 138.78125 C 149.246094 138.871094 149.28125 138.960938 149.316406 139.050781 C 149.371094 139.160156 149.425781 139.269531 149.496094 139.367188 C 149.515625 139.394531 149.507812 139.4375 149.523438 139.464844 C 149.550781 139.527344 149.578125 139.589844 149.578125 139.664062 C 149.578125 139.75 149.5625 139.824219 149.523438 139.894531 C 149.496094 139.96875 149.453125 140.03125 149.398438 140.082031 C 149.34375 140.136719 149.273438 140.175781 149.199219 140.203125 C 149.121094 140.238281 149.046875 140.261719 148.960938 140.253906 C 148.851562 140.253906 148.75 140.226562 148.652344 140.171875 C 148.609375 140.140625 148.566406 140.109375 148.527344 140.082031 C 148.449219 140.011719 148.394531 139.921875 148.367188 139.824219 C 148.265625 139.539062 148.207031 139.222656 148.195312 138.917969 Z M 158.839844 136.558594 C 158.882812 136.585938 158.925781 136.613281 158.957031 136.644531 C 158.964844 136.648438 158.972656 136.648438 158.980469 136.65625 C 159.027344 136.699219 159.0625 136.746094 159.097656 136.800781 C 159.109375 136.828125 159.132812 136.855469 159.144531 136.882812 C 159.214844 136.996094 159.285156 137.113281 159.351562 137.222656 C 159.414062 137.320312 159.441406 137.425781 159.441406 137.542969 C 159.441406 137.632812 159.429688 137.707031 159.386719 137.785156 C 159.359375 137.859375 159.3125 137.929688 159.25 137.984375 C 159.1875 138.046875 159.117188 138.089844 159.035156 138.117188 C 158.953125 138.15625 158.867188 138.171875 158.777344 138.171875 C 158.660156 138.171875 158.550781 138.144531 158.445312 138.089844 C 158.351562 138.03125 158.273438 137.941406 158.210938 137.847656 C 158.183594 137.804688 158.148438 137.761719 158.144531 137.714844 C 158.113281 137.597656 158.085938 137.480469 158.058594 137.367188 C 158.039062 137.273438 158.003906 137.160156 158.003906 137.066406 C 158.003906 136.96875 158.039062 136.890625 158.054688 136.792969 C 158.054688 136.808594 158.046875 136.824219 158.046875 136.84375 C 158.054688 136.78125 158.066406 136.71875 158.101562 136.664062 C 158.128906 136.613281 158.171875 136.574219 158.21875 136.539062 C 158.265625 136.496094 158.316406 136.476562 158.378906 136.460938 C 158.460938 136.441406 158.542969 136.441406 158.621094 136.460938 C 158.703125 136.46875 158.765625 136.511719 158.839844 136.558594 Z M 84.023438 219.390625 C 82.785156 215.679688 83.652344 211.59375 86.121094 209.457031 L 85.585938 208.839844 C 85.125 209.242188 84.730469 209.679688 84.382812 210.148438 C 85.109375 208.53125 86.429688 207.070312 88.140625 206.09375 C 90.339844 204.835938 93.167969 204.28125 96.546875 204.441406 C 96.996094 204.460938 97.457031 204.496094 97.921875 204.523438 C 100.898438 204.71875 104.273438 204.941406 106.550781 202.84375 C 107.503906 201.964844 108.089844 200.808594 108.660156 199.695312 C 108.96875 199.082031 109.296875 198.445312 109.675781 197.878906 C 111.800781 194.683594 116.214844 192.960938 120.929688 193.492188 C 125.269531 193.984375 129.226562 196.03125 133.042969 198.007812 C 134.117188 198.5625 135.1875 199.183594 135.515625 200.195312 C 135.671875 200.691406 135.652344 201.300781 135.4375 202.097656 C 134.925781 204.011719 133.828125 205.652344 132.65625 207.386719 C 131.695312 208.820312 130.699219 210.300781 130.070312 211.945312 C 129.570312 213.269531 129.316406 214.664062 129.074219 216.011719 C 128.921875 216.851562 128.761719 217.722656 128.546875 218.550781 C 128.085938 220.335938 127.101562 222.667969 125.039062 223.636719 C 124.714844 223.789062 124.371094 223.90625 124.003906 224.03125 C 123.277344 224.28125 122.523438 224.535156 121.921875 225.09375 C 121.261719 225.710938 120.953125 226.554688 120.675781 227.300781 L 118.238281 233.921875 C 118.03125 234.488281 117.824219 234.980469 117.445312 235.234375 C 116.828125 235.644531 115.921875 235.304688 115.382812 234.765625 C 114.976562 234.355469 114.683594 233.851562 114.375 233.320312 C 114.207031 233.027344 114.035156 232.738281 113.847656 232.460938 C 111.441406 228.914062 106.582031 228.292969 103.898438 228.234375 C 103.65625 228.230469 103.421875 228.230469 103.179688 228.230469 C 102.28125 228.230469 101.375 228.257812 100.496094 228.292969 C 98.0625 228.375 95.542969 228.464844 93.175781 227.871094 C 88.984375 226.816406 85.386719 223.492188 84.023438 219.390625 Z M 84.273438 221.941406 C 86.121094 225.214844 89.335938 227.746094 92.984375 228.65625 C 95.460938 229.273438 98.039062 229.191406 100.53125 229.101562 C 101.636719 229.058594 102.777344 229.023438 103.890625 229.046875 C 106.417969 229.101562 110.984375 229.675781 113.183594 232.917969 C 113.363281 233.179688 113.523438 233.449219 113.679688 233.726562 C 114.007812 234.28125 114.339844 234.863281 114.816406 235.339844 C 115.335938 235.859375 116.089844 236.230469 116.820312 236.230469 C 117.195312 236.230469 117.570312 236.136719 117.902344 235.914062 C 118.539062 235.492188 118.808594 234.746094 119.007812 234.203125 L 121.441406 227.585938 C 121.683594 226.921875 121.960938 226.175781 122.480469 225.691406 C 122.953125 225.246094 123.585938 225.035156 124.265625 224.804688 C 124.640625 224.679688 125.019531 224.550781 125.386719 224.375 C 127.730469 223.269531 128.824219 220.710938 129.328125 218.757812 C 129.550781 217.902344 129.710938 217.015625 129.863281 216.164062 C 130.097656 214.851562 130.347656 213.496094 130.824219 212.242188 C 131.417969 210.6875 132.386719 209.242188 133.320312 207.851562 C 134.476562 206.136719 135.667969 204.367188 136.210938 202.316406 C 136.371094 201.714844 136.550781 200.824219 136.273438 199.960938 C 135.859375 198.660156 134.628906 197.933594 133.410156 197.304688 C 129.703125 195.386719 125.503906 193.207031 121.015625 192.703125 C 116 192.136719 111.28125 193.996094 108.992188 197.449219 C 108.589844 198.058594 108.25 198.714844 107.925781 199.351562 C 107.363281 200.449219 106.839844 201.480469 105.996094 202.261719 C 103.976562 204.125 100.925781 203.921875 97.976562 203.730469 C 97.507812 203.703125 97.042969 203.667969 96.585938 203.644531 C 93.066406 203.480469 90.078125 204.066406 87.738281 205.402344 C 87.414062 205.589844 87.109375 205.789062 86.8125 206.003906 C 84.445312 207.71875 82.957031 210.328125 82.945312 212.921875 L 83.046875 212.921875 C 82.40625 215.167969 82.578125 217.640625 83.25 219.660156 C 83.511719 220.441406 83.859375 221.207031 84.273438 221.941406 Z M 86.121094 209.457031 L 85.585938 208.839844 C 85.125 209.242188 84.730469 209.679688 84.382812 210.148438 C 85.109375 208.53125 86.429688 207.070312 88.140625 206.09375 C 90.339844 204.835938 93.167969 204.28125 96.546875 204.441406 C 96.996094 204.460938 97.457031 204.496094 97.921875 204.523438 C 100.898438 204.71875 104.273438 204.941406 106.550781 202.84375 C 107.503906 201.964844 108.089844 200.808594 108.660156 199.695312 C 108.96875 199.082031 109.296875 198.445312 109.675781 197.878906 C 111.800781 194.683594 116.214844 192.960938 120.929688 193.492188 C 125.269531 193.984375 129.226562 196.03125 133.042969 198.007812 C 134.117188 198.5625 135.1875 199.183594 135.515625 200.195312 C 135.671875 200.691406 135.652344 201.300781 135.4375 202.097656 C 134.925781 204.011719 133.828125 205.652344 132.65625 207.386719 C 131.695312 208.820312 130.699219 210.300781 130.070312 211.945312 C 129.570312 213.269531 129.316406 214.664062 129.074219 216.011719 C 128.921875 216.851562 128.761719 217.722656 128.546875 218.550781 C 128.085938 220.335938 127.101562 222.667969 125.039062 223.636719 C 124.714844 223.789062 124.371094 223.90625 124.003906 224.03125 C 123.277344 224.28125 122.523438 224.535156 121.921875 225.09375 C 121.261719 225.710938 120.953125 226.554688 120.675781 227.300781 L 118.238281 233.921875 C 118.03125 234.488281 117.824219 234.980469 117.445312 235.234375 C 116.828125 235.644531 115.921875 235.304688 115.382812 234.765625 C 114.976562 234.355469 114.683594 233.851562 114.375 233.320312 C 114.207031 233.027344 114.035156 232.738281 113.847656 232.460938 C 111.441406 228.914062 106.582031 228.292969 103.898438 228.234375 C 103.65625 228.230469 103.421875 228.230469 103.179688 228.230469 C 102.28125 228.230469 101.375 228.257812 100.496094 228.292969 C 98.0625 228.375 95.542969 228.464844 93.175781 227.871094 C 88.984375 226.824219 85.386719 223.496094 84.015625 219.394531 C 82.785156 215.679688 83.644531 211.59375 86.121094 209.457031 Z M 105.097656 251.199219 L 106.058594 259.285156 C 99.664062 256.539062 94.289062 251.433594 91.238281 245.1875 C 90.894531 244.492188 90.375 243.632812 89.820312 242.726562 C 88.804688 241.058594 87.65625 239.179688 87.429688 237.914062 C 87.324219 237.339844 87.429688 236.855469 87.753906 236.445312 C 88.335938 235.707031 89.667969 235.195312 91.335938 235.082031 C 92.832031 234.980469 94.707031 235.566406 95.515625 237.101562 C 95.675781 237.40625 95.792969 237.734375 95.917969 238.078125 C 96.101562 238.605469 96.289062 239.144531 96.648438 239.613281 C 97.582031 240.84375 99.097656 241.046875 100.566406 241.234375 C 101.402344 241.34375 102.265625 241.453125 102.992188 241.757812 C 104.375 242.347656 105.351562 243.804688 105.371094 245.304688 C 105.378906 245.847656 105.277344 246.386719 105.164062 246.960938 C 105.089844 247.347656 105.011719 247.726562 104.972656 248.113281 C 104.855469 249.167969 104.980469 250.195312 105.097656 251.199219 Z M 105.78125 248.203125 C 105.824219 247.839844 105.890625 247.476562 105.960938 247.117188 C 106.070312 246.53125 106.1875 245.929688 106.183594 245.304688 C 106.160156 243.496094 104.980469 241.730469 103.3125 241.019531 C 102.480469 240.664062 101.5625 240.546875 100.667969 240.429688 C 99.304688 240.257812 98.027344 240.085938 97.300781 239.121094 C 97.015625 238.75 96.855469 238.292969 96.683594 237.800781 C 96.558594 237.441406 96.429688 237.070312 96.234375 236.714844 C 95.382812 235.105469 93.382812 234.128906 91.28125 234.261719 C 90.375 234.324219 88.148438 234.605469 87.109375 235.933594 C 87.0625 235.996094 87.035156 236.058594 86.992188 236.121094 C 86.632812 236.675781 86.5 237.316406 86.625 238.042969 C 86.882812 239.460938 88.070312 241.414062 89.121094 243.140625 C 89.664062 244.027344 90.179688 244.871094 90.507812 245.535156 C 93.742188 252.167969 99.535156 257.550781 106.390625 260.296875 L 107.027344 260.550781 L 106.875 259.292969 L 105.898438 251.097656 C 105.792969 250.148438 105.675781 249.160156 105.78125 248.203125 Z M 106.058594 259.277344 C 99.664062 256.53125 94.289062 251.429688 91.238281 245.183594 C 90.894531 244.484375 90.375 243.625 89.820312 242.71875 C 88.804688 241.050781 87.65625 239.171875 87.429688 237.90625 C 87.324219 237.332031 87.429688 236.847656 87.753906 236.4375 C 88.335938 235.699219 89.667969 235.1875 91.335938 235.078125 C 92.832031 234.972656 94.707031 235.5625 95.515625 237.097656 C 95.675781 237.402344 95.792969 237.726562 95.917969 238.070312 C 96.101562 238.597656 96.289062 239.136719 96.648438 239.605469 C 97.582031 240.839844 99.097656 241.039062 100.566406 241.226562 C 101.402344 241.335938 102.265625 241.445312 102.992188 241.75 C 104.375 242.339844 105.351562 243.796875 105.371094 245.300781 C 105.378906 245.839844 105.277344 246.378906 105.164062 246.953125 C 105.089844 247.339844 105.011719 247.71875 104.972656 248.109375 C 104.859375 249.152344 104.984375 250.183594 105.101562 251.1875 Z M 165.128906 242.710938 L 160.292969 247.417969 C 157.152344 250.472656 153.910156 253.628906 150.351562 256.277344 C 150.171875 256.414062 149.925781 256.609375 149.640625 256.84375 C 148.628906 257.660156 146.257812 259.574219 145.398438 259.332031 C 144.703125 259.132812 144.097656 257.382812 143.613281 254.125 L 143.574219 253.84375 C 143.523438 253.523438 143.492188 253.210938 143.585938 252.96875 C 143.683594 252.726562 143.917969 252.527344 144.175781 252.320312 L 144.335938 252.183594 C 145.78125 250.929688 146.542969 248.964844 146.320312 247.070312 C 146.257812 246.550781 146.125 246.046875 146 245.5625 C 145.882812 245.105469 145.773438 244.671875 145.710938 244.226562 C 145.578125 243.230469 145.820312 242.375 146.367188 241.9375 C 146.976562 241.453125 147.890625 241.488281 148.769531 241.515625 L 149.074219 241.53125 C 152.152344 241.605469 154.882812 240.5 156.359375 238.542969 C 156.46875 238.398438 156.574219 238.246094 156.667969 238.09375 C 156.925781 237.71875 157.160156 237.371094 157.472656 237.125 C 158.585938 236.257812 160.253906 236.921875 160.738281 237.152344 C 162.964844 238.1875 164.632812 240.304688 165.128906 242.710938 Z M 161.082031 236.410156 C 159.503906 235.679688 157.96875 235.699219 156.972656 236.480469 C 156.558594 236.804688 156.273438 237.222656 156 237.628906 C 155.902344 237.765625 155.804688 237.914062 155.707031 238.050781 C 154.398438 239.800781 151.910156 240.789062 149.101562 240.714844 L 148.796875 240.707031 C 147.8125 240.671875 146.699219 240.628906 145.855469 241.300781 C 145.089844 241.917969 144.734375 243.050781 144.902344 244.332031 C 144.964844 244.824219 145.089844 245.300781 145.214844 245.761719 C 145.335938 246.246094 145.457031 246.695312 145.511719 247.167969 C 145.703125 248.804688 145.046875 250.496094 143.800781 251.574219 L 143.648438 251.699219 C 143.34375 251.953125 143 252.238281 142.832031 252.671875 C 142.660156 253.109375 142.707031 253.550781 142.769531 253.972656 L 142.8125 254.25 C 143.125 256.347656 143.554688 258.503906 144.375 259.535156 C 144.609375 259.824219 144.875 260.03125 145.171875 260.121094 C 145.289062 260.15625 145.40625 260.171875 145.539062 260.171875 C 146.722656 260.171875 148.457031 258.851562 150.144531 257.480469 C 150.421875 257.253906 150.65625 257.066406 150.835938 256.933594 C 154.441406 254.25 157.699219 251.074219 160.882812 247.976562 L 166 242.988281 L 165.960938 242.773438 C 165.820312 241.980469 165.550781 241.21875 165.199219 240.5 C 164.335938 238.734375 162.875 237.25 161.082031 236.410156 Z M 160.292969 247.417969 C 157.152344 250.472656 153.910156 253.628906 150.351562 256.277344 C 150.171875 256.414062 149.925781 256.609375 149.640625 256.84375 C 148.628906 257.660156 146.257812 259.574219 145.398438 259.332031 C 144.703125 259.132812 144.097656 257.382812 143.613281 254.125 L 143.574219 253.84375 C 143.523438 253.523438 143.492188 253.210938 143.585938 252.96875 C 143.683594 252.726562 143.917969 252.527344 144.175781 252.320312 L 144.335938 252.183594 C 145.78125 250.929688 146.542969 248.964844 146.320312 247.070312 C 146.257812 246.550781 146.125 246.046875 146 245.5625 C 145.882812 245.105469 145.773438 244.671875 145.710938 244.226562 C 145.578125 243.230469 145.820312 242.375 146.367188 241.9375 C 146.976562 241.453125 147.890625 241.488281 148.769531 241.515625 L 149.074219 241.53125 C 152.152344 241.605469 154.882812 240.5 156.359375 238.542969 C 156.46875 238.398438 156.574219 238.246094 156.667969 238.09375 C 156.925781 237.71875 157.160156 237.371094 157.472656 237.125 C 158.585938 236.257812 160.253906 236.921875 160.738281 237.152344 C 162.964844 238.195312 164.632812 240.3125 165.128906 242.710938 Z M 136.207031 233.511719 C 136.242188 232.386719 136.273438 231.21875 136.953125 230.433594 C 137.089844 230.277344 137.257812 230.136719 137.417969 230 C 137.617188 229.828125 137.824219 229.648438 138.011719 229.425781 C 138.746094 228.53125 138.78125 227.390625 138.8125 226.292969 C 138.820312 225.960938 138.835938 225.636719 138.863281 225.316406 C 138.9375 224.507812 139.386719 223.65625 139.929688 223.296875 C 140.121094 223.164062 140.316406 223.101562 140.515625 223.101562 C 140.640625 223.996094 141.492188 224.75 142.882812 225.164062 C 143.886719 225.46875 144.882812 225.828125 145.054688 226.601562 C 145.128906 226.96875 145.003906 227.386719 144.867188 227.8125 C 144.707031 228.304688 144.550781 228.816406 144.644531 229.371094 C 144.859375 230.636719 146.167969 231.175781 147.21875 231.605469 L 147.488281 231.714844 C 148.175781 232 148.78125 232.578125 148.933594 233.085938 C 149.003906 233.320312 148.984375 233.519531 148.859375 233.707031 C 148.671875 233.992188 148.285156 234.136719 147.964844 234.234375 C 147.039062 234.515625 146.0625 234.605469 145.019531 234.695312 C 143.582031 234.828125 142.085938 234.957031 140.757812 235.65625 C 138.980469 236.589844 138.476562 237.917969 137.941406 239.324219 C 137.707031 239.945312 137.464844 240.589844 137.089844 241.226562 C 136.476562 242.285156 135.707031 242.800781 134.726562 242.800781 C 134.71875 242.800781 134.710938 242.800781 134.699219 242.800781 C 132.332031 242.78125 129.386719 239.738281 128.175781 237.554688 C 128.070312 237.359375 127.933594 237.089844 128.007812 236.921875 C 128.105469 236.6875 128.617188 236.707031 129.074219 236.828125 L 131.992188 237.59375 C 132.574219 237.746094 133.292969 237.941406 134.011719 237.761719 C 135.285156 237.433594 136.101562 236.058594 136.191406 234.085938 C 136.191406 233.894531 136.199219 233.707031 136.207031 233.511719 Z M 135.390625 233.484375 C 135.382812 233.671875 135.375 233.859375 135.367188 234.046875 C 135.3125 235.285156 134.871094 236.695312 133.796875 236.972656 C 133.285156 237.101562 132.707031 236.945312 132.1875 236.8125 L 129.265625 236.042969 C 128.25 235.773438 127.511719 235.984375 127.246094 236.605469 C 127.039062 237.089844 127.246094 237.582031 127.453125 237.945312 C 128.714844 240.214844 131.890625 243.589844 134.683594 243.613281 C 134.691406 243.613281 134.703125 243.613281 134.710938 243.613281 C 135.972656 243.613281 137.027344 242.925781 137.785156 241.625 C 138.183594 240.933594 138.441406 240.257812 138.691406 239.605469 C 139.1875 238.292969 139.625 237.164062 141.125 236.371094 C 142.308594 235.746094 143.65625 235.621094 145.074219 235.5 C 146.113281 235.410156 147.179688 235.3125 148.179688 235 C 148.628906 234.863281 149.191406 234.640625 149.515625 234.144531 C 149.773438 233.753906 149.835938 233.300781 149.695312 232.835938 C 149.433594 231.976562 148.546875 231.273438 147.785156 230.953125 L 147.515625 230.84375 C 146.5625 230.449219 145.574219 230.046875 145.433594 229.226562 C 145.371094 228.863281 145.496094 228.464844 145.628906 228.050781 C 145.789062 227.558594 145.960938 226.996094 145.835938 226.417969 C 145.550781 225.109375 144.078125 224.667969 143.109375 224.375 C 142.191406 224.097656 141.234375 223.539062 141.3125 222.785156 L 141.347656 222.453125 L 141.027344 222.355469 C 140.496094 222.199219 139.960938 222.289062 139.472656 222.613281 C 138.722656 223.117188 138.15625 224.167969 138.054688 225.234375 C 138.019531 225.566406 138.011719 225.910156 137.996094 226.257812 C 137.96875 227.265625 137.933594 228.222656 137.375 228.898438 C 137.238281 229.066406 137.0625 229.21875 136.878906 229.378906 C 136.683594 229.542969 136.496094 229.710938 136.332031 229.894531 C 135.472656 230.898438 135.429688 232.273438 135.390625 233.484375 Z M 137.410156 230 C 137.609375 229.828125 137.816406 229.648438 138.003906 229.425781 C 138.738281 228.53125 138.773438 227.390625 138.808594 226.292969 C 138.8125 225.960938 138.828125 225.636719 138.855469 225.316406 C 138.929688 224.507812 139.382812 223.65625 139.921875 223.296875 C 140.113281 223.164062 140.308594 223.101562 140.507812 223.101562 C 140.632812 223.996094 141.484375 224.75 142.875 225.164062 C 143.878906 225.46875 144.875 225.828125 145.046875 226.601562 C 145.125 226.96875 145 227.386719 144.859375 227.8125 C 144.703125 228.304688 144.542969 228.816406 144.640625 229.371094 C 144.851562 230.636719 146.160156 231.175781 147.210938 231.605469 L 147.480469 231.714844 C 148.167969 232 148.777344 232.578125 148.929688 233.085938 C 148.996094 233.320312 148.976562 233.519531 148.851562 233.707031 C 148.664062 233.992188 148.277344 234.136719 147.960938 234.234375 C 147.03125 234.515625 146.058594 234.605469 145.011719 234.695312 C 143.574219 234.828125 142.078125 234.957031 140.75 235.65625 C 138.972656 236.589844 138.46875 237.917969 137.933594 239.324219 C 137.699219 239.945312 137.457031 240.589844 137.085938 241.226562 C 136.46875 242.285156 135.699219 242.800781 134.71875 242.800781 C 134.710938 242.800781 134.703125 242.800781 134.691406 242.800781 C 132.324219 242.78125 129.378906 239.738281 128.167969 237.554688 C 128.0625 237.359375 127.925781 237.089844 128 236.921875 C 128.097656 236.6875 128.609375 236.707031 129.066406 236.828125 L 131.984375 237.59375 C 132.566406 237.746094 133.285156 237.941406 134.007812 237.761719 C 135.277344 237.433594 136.09375 236.058594 136.183594 234.085938 C 136.191406 233.902344 136.199219 233.707031 136.207031 233.511719 C 136.242188 232.386719 136.273438 231.21875 136.953125 230.433594 C 137.089844 230.277344 137.25 230.136719 137.410156 230 Z M 167.265625 203.972656 C 168.859375 207.476562 169.929688 211.164062 170.457031 214.921875 C 170.71875 216.824219 170.84375 218.730469 170.824219 220.613281 C 170.824219 220.875 170.71875 221.511719 170.617188 222.183594 C 170.464844 223.160156 170.351562 223.917969 170.304688 224.507812 C 169.40625 223.117188 168.652344 221.609375 167.917969 220.144531 C 166.734375 217.777344 165.511719 215.328125 163.675781 213.328125 C 160.929688 210.335938 156.917969 208.585938 152.855469 208.585938 C 152.671875 208.585938 152.484375 208.59375 152.296875 208.597656 L 151.992188 208.613281 C 151.011719 208.660156 149.992188 208.703125 149.351562 208.140625 C 148.71875 207.597656 148.636719 206.683594 148.554688 205.707031 C 148.507812 205.175781 148.457031 204.628906 148.3125 204.109375 C 147.613281 201.542969 144.929688 200.386719 142.5625 199.371094 C 142.300781 199.253906 142.039062 199.144531 141.78125 199.03125 C 141.195312 198.769531 140.261719 198.160156 140.460938 197.519531 C 140.542969 197.25 140.835938 197.027344 141.097656 196.855469 C 142.371094 196.015625 143.789062 195.582031 145.289062 195.125 C 146.1875 194.847656 147.117188 194.570312 148.007812 194.191406 C 149.308594 193.636719 150.261719 192.808594 151.191406 192 C 151.875 191.402344 152.523438 190.835938 153.308594 190.371094 C 154.242188 189.820312 155.230469 189.714844 156.316406 190.0625 C 160.589844 191.410156 165.210938 199.441406 167.265625 203.972656 Z M 152.863281 189.675781 C 152.019531 190.171875 151.316406 190.789062 150.628906 191.382812 C 149.710938 192.179688 148.839844 192.9375 147.660156 193.4375 C 146.8125 193.796875 145.90625 194.074219 145.027344 194.34375 C 143.53125 194.800781 141.996094 195.269531 140.625 196.167969 C 140.238281 196.425781 139.824219 196.757812 139.664062 197.269531 C 139.3125 198.382812 140.351562 199.289062 141.4375 199.773438 C 141.699219 199.890625 141.960938 200 142.230469 200.117188 C 144.535156 201.113281 146.921875 202.136719 147.515625 204.324219 C 147.640625 204.773438 147.683594 205.285156 147.730469 205.785156 C 147.828125 206.871094 147.933594 207.996094 148.804688 208.757812 C 149.703125 209.539062 150.933594 209.484375 152.019531 209.429688 L 152.316406 209.414062 C 156.324219 209.25 160.355469 210.921875 163.066406 213.882812 C 164.824219 215.792969 166.023438 218.191406 167.183594 220.507812 C 168.015625 222.167969 168.886719 223.871094 169.953125 225.433594 C 170.117188 225.675781 170.277344 225.925781 170.457031 226.160156 L 171.113281 225.691406 C 170.949219 225.332031 171.265625 223.296875 171.417969 222.320312 C 171.535156 221.554688 171.632812 220.953125 171.632812 220.632812 C 171.652344 218.71875 171.527344 216.761719 171.257812 214.824219 C 170.726562 210.992188 169.625 207.230469 168.007812 203.652344 C 167.503906 202.53125 163.449219 193.824219 158.6875 190.421875 C 157.984375 189.917969 157.265625 189.523438 156.539062 189.292969 C 155.230469 188.871094 154 189.003906 152.863281 189.675781 Z M 167.265625 203.972656 C 168.859375 207.476562 169.929688 211.164062 170.457031 214.921875 C 170.71875 216.824219 170.84375 218.730469 170.824219 220.613281 C 170.824219 220.875 170.71875 221.511719 170.617188 222.183594 C 170.464844 223.160156 170.351562 223.917969 170.304688 224.507812 C 169.40625 223.117188 168.652344 221.609375 167.917969 220.144531 C 166.734375 217.777344 165.511719 215.328125 163.675781 213.328125 C 160.929688 210.335938 156.917969 208.585938 152.855469 208.585938 C 152.671875 208.585938 152.484375 208.59375 152.296875 208.597656 L 151.992188 208.613281 C 151.011719 208.660156 149.992188 208.703125 149.351562 208.140625 C 148.71875 207.597656 148.636719 206.683594 148.554688 205.707031 C 148.507812 205.175781 148.457031 204.628906 148.3125 204.109375 C 147.613281 201.542969 144.929688 200.386719 142.5625 199.371094 C 142.300781 199.253906 142.039062 199.144531 141.78125 199.03125 C 141.195312 198.769531 140.261719 198.160156 140.460938 197.519531 C 140.542969 197.25 140.835938 197.027344 141.097656 196.855469 C 142.371094 196.015625 143.789062 195.582031 145.289062 195.125 C 146.1875 194.847656 147.117188 194.570312 148.007812 194.191406 C 149.308594 193.636719 150.261719 192.808594 151.191406 192 C 151.875 191.402344 152.523438 190.835938 153.308594 190.371094 C 154.242188 189.820312 155.230469 189.714844 156.316406 190.0625 C 160.589844 191.410156 165.210938 199.441406 167.265625 203.972656 Z M 124.921875 180.535156 C 126.003906 179.664062 128.625 179.285156 130.644531 179.285156 C 131.777344 179.285156 132.71875 179.402344 133.085938 179.625 C 134.066406 180.203125 134.601562 181.382812 134.917969 182.210938 C 135.554688 183.886719 135.902344 185.640625 135.949219 187.433594 C 135.949219 187.53125 135.957031 187.6875 135.914062 187.75 C 135.894531 187.785156 135.878906 187.800781 135.839844 187.800781 C 135.652344 187.839844 135.292969 187.675781 134.996094 187.425781 C 133.398438 186.113281 131.675781 184.914062 129.863281 183.863281 C 129.578125 183.699219 128.976562 183.457031 128.207031 183.144531 C 127.101562 182.695312 124.804688 181.753906 124.578125 181.367188 C 124.515625 181.167969 124.492188 180.882812 124.921875 180.535156 Z M 123.816406 181.628906 C 124.015625 182.226562 125.242188 182.8125 127.90625 183.898438 C 128.582031 184.175781 129.21875 184.4375 129.453125 184.570312 C 131.226562 185.59375 132.914062 186.769531 134.476562 188.054688 C 134.824219 188.339844 135.328125 188.617188 135.789062 188.617188 C 135.851562 188.617188 135.914062 188.609375 135.972656 188.601562 C 136.242188 188.554688 136.460938 188.410156 136.605469 188.167969 C 136.757812 187.917969 136.757812 187.640625 136.757812 187.40625 C 136.710938 185.523438 136.34375 183.675781 135.671875 181.914062 C 135.429688 181.277344 135.066406 180.46875 134.492188 179.78125 C 134.214844 179.449219 133.886719 179.148438 133.492188 178.917969 C 132.105469 178.09375 126.304688 178.359375 124.402344 179.902344 C 124.273438 180.003906 124.167969 180.121094 124.070312 180.238281 C 123.753906 180.660156 123.648438 181.140625 123.816406 181.628906 Z M 130.644531 179.285156 C 131.777344 179.285156 132.71875 179.402344 133.085938 179.625 C 134.066406 180.203125 134.601562 181.382812 134.917969 182.210938 C 135.554688 183.886719 135.902344 185.640625 135.949219 187.433594 C 135.949219 187.53125 135.957031 187.6875 135.914062 187.75 C 135.894531 187.785156 135.878906 187.800781 135.839844 187.800781 C 135.652344 187.839844 135.292969 187.675781 134.996094 187.425781 C 133.398438 186.113281 131.675781 184.914062 129.863281 183.863281 C 129.578125 183.699219 128.976562 183.457031 128.207031 183.144531 C 127.101562 182.695312 124.804688 181.753906 124.578125 181.367188 C 124.507812 181.160156 124.480469 180.875 124.914062 180.53125 C 126.003906 179.664062 128.632812 179.285156 130.644531 179.285156 Z M 130.644531 179.285156 " fill-opacity="1" fill-rule="nonzero"/><g clip-path="url(#50150ec28c)"><g clip-path="url(#6cb48fdc33)"><g clip-path="url(#7df8d823c6)"><path fill="#051d40" d="M 185.289062 87 L 115.722656 259.058594 C 115.722656 259.058594 101.019531 288.539062 128.484375 299.644531 L 253.484375 350.183594 C 280.960938 361.292969 290.878906 329.878906 290.878906 329.878906 L 360.445312 157.820312 C 360.445312 157.820312 375.148438 128.339844 347.675781 117.230469 L 222.671875 66.6875 C 195.210938 55.585938 185.289062 87 185.289062 87 " fill-opacity="1" fill-rule="nonzero"/></g></g></g><g clip-path="url(#a15f7d5c3c)"><g clip-path="url(#2eceb67fff)"><g clip-path="url(#11fc8a1ce6)"><path fill="#737373" d="M 211.449219 166.488281 C 210.273438 169.394531 206.96875 170.796875 204.0625 169.621094 L 185.488281 162.113281 C 182.59375 160.941406 181.179688 157.632812 182.351562 154.726562 L 188.699219 139.03125 C 189.875 136.128906 193.195312 134.71875 196.089844 135.890625 L 214.664062 143.398438 C 217.570312 144.574219 218.96875 147.890625 217.796875 150.796875 L 211.449219 166.488281 " fill-opacity="1" fill-rule="nonzero"/></g></g></g><g clip-path="url(#0dd9589f0e)"><g clip-path="url(#a0208b3629)"><g clip-path="url(#b128ba2062)"><path fill="#e8e8e8" d="M 245.941406 180.4375 C 244.765625 183.339844 241.460938 184.742188 238.554688 183.566406 L 219.992188 176.0625 C 217.085938 174.886719 215.679688 171.582031 216.855469 168.675781 L 223.203125 152.984375 C 224.375 150.078125 227.6875 148.664062 230.59375 149.839844 L 249.15625 157.34375 C 252.0625 158.519531 253.460938 161.835938 252.285156 164.742188 L 245.941406 180.4375 " fill-opacity="1" fill-rule="nonzero"/></g></g></g><g clip-path="url(#e45987c3a8)"><g clip-path="url(#48dabc3fad)"><g clip-path="url(#4b59ecbd2c)"><path fill="#e8e8e8" d="M 280.71875 194.496094 C 279.546875 197.402344 276.238281 198.804688 273.320312 197.625 L 254.757812 190.121094 C 251.851562 188.945312 250.449219 185.640625 251.625 182.734375 L 257.96875 167.039062 C 259.144531 164.132812 262.453125 162.722656 265.363281 163.898438 L 283.921875 171.402344 C 286.84375 172.582031 288.238281 175.898438 287.066406 178.804688 L 280.71875 194.496094 " fill-opacity="1" fill-rule="nonzero"/></g></g></g><g clip-path="url(#310bd105a6)"><g clip-path="url(#bc240636d0)"><g clip-path="url(#170894b53d)"><path fill="#e8e8e8" d="M 315.488281 208.554688 C 314.3125 211.460938 311.007812 212.863281 308.085938 211.679688 L 289.527344 204.175781 C 286.617188 203 285.214844 199.695312 286.390625 196.789062 L 292.734375 181.097656 C 293.910156 178.191406 297.222656 176.777344 300.128906 177.953125 L 318.691406 185.457031 C 321.609375 186.640625 323.007812 189.957031 321.832031 192.863281 L 315.488281 208.554688 " fill-opacity="1" fill-rule="nonzero"/></g></g></g><g clip-path="url(#2a378716cf)"><g clip-path="url(#0c26fb7fe7)"><g clip-path="url(#6ea6b840fe)"><path fill="#e8e8e8" d="M 196.589844 203.242188 C 195.410156 206.160156 192.105469 207.5625 189.195312 206.386719 L 170.625 198.875 C 167.730469 197.707031 166.3125 194.394531 167.492188 191.476562 L 173.832031 175.796875 C 175.007812 172.890625 178.328125 171.496094 181.222656 172.664062 L 199.792969 180.175781 C 202.703125 181.351562 204.105469 184.65625 202.929688 187.5625 L 196.589844 203.242188 " fill-opacity="1" fill-rule="nonzero"/></g></g></g><g clip-path="url(#c357c40dcf)"><g clip-path="url(#a4bd0078ba)"><g clip-path="url(#d75f2c57fe)"><path fill="#e8e8e8" d="M 231.082031 217.1875 C 229.902344 220.105469 226.59375 221.507812 223.6875 220.332031 L 205.128906 212.828125 C 202.21875 211.652344 200.816406 208.347656 201.996094 205.429688 L 208.335938 189.746094 C 209.511719 186.84375 212.816406 185.441406 215.726562 186.617188 L 234.285156 194.121094 C 237.191406 195.296875 238.597656 198.601562 237.421875 201.507812 L 231.082031 217.1875 " fill-opacity="1" fill-rule="nonzero"/></g></g></g><g clip-path="url(#c477a03038)"><g clip-path="url(#c739a5534b)"><g clip-path="url(#48d663a45b)"><path fill="#e8e8e8" d="M 265.859375 231.25 C 264.679688 234.167969 261.375 235.570312 258.457031 234.390625 L 239.894531 226.882812 C 236.988281 225.707031 235.582031 222.402344 236.761719 219.484375 L 243.105469 203.804688 C 244.277344 200.898438 247.585938 199.5 250.492188 200.671875 L 269.054688 208.179688 C 271.972656 209.359375 273.375 212.664062 272.199219 215.570312 L 265.859375 231.25 " fill-opacity="1" fill-rule="nonzero"/></g></g></g><g clip-path="url(#cfc8e05ae9)"><g clip-path="url(#770e97e9bc)"><g clip-path="url(#cf244531a2)"><path fill="#e8e8e8" d="M 300.628906 245.308594 C 299.449219 248.226562 296.140625 249.625 293.222656 248.445312 L 274.660156 240.941406 C 271.753906 239.765625 270.351562 236.460938 271.53125 233.542969 L 277.871094 217.863281 C 279.046875 214.957031 282.351562 213.554688 285.257812 214.730469 L 303.820312 222.234375 C 306.738281 223.414062 308.144531 226.722656 306.96875 229.625 L 300.628906 245.308594 " fill-opacity="1" fill-rule="nonzero"/></g></g></g><g clip-path="url(#9b2b400a0e)"><g clip-path="url(#a7814a9771)"><g clip-path="url(#a95e54fd28)"><path fill="#e8e8e8" d="M 182.136719 238.988281 C 180.96875 241.878906 177.65625 243.292969 174.75 242.117188 L 156.175781 234.609375 C 153.28125 233.4375 151.871094 230.117188 153.042969 227.222656 L 159.386719 211.53125 C 160.5625 208.625 163.882812 207.214844 166.777344 208.386719 L 185.351562 215.894531 C 188.257812 217.070312 189.65625 220.386719 188.484375 223.292969 L 182.136719 238.988281 " fill-opacity="1" fill-rule="nonzero"/></g></g></g><g clip-path="url(#95fc107e38)"><g clip-path="url(#1dfce4a784)"><g clip-path="url(#7cc34c9352)"><path fill="#e8e8e8" d="M 216.628906 252.933594 C 215.457031 255.824219 212.148438 257.238281 209.242188 256.0625 L 190.679688 248.558594 C 187.773438 247.382812 186.375 244.066406 187.542969 241.171875 L 193.890625 225.480469 C 195.0625 222.574219 198.375 221.160156 201.28125 222.335938 L 219.84375 229.839844 C 222.75 231.015625 224.148438 234.332031 222.972656 237.238281 L 216.628906 252.933594 " fill-opacity="1" fill-rule="nonzero"/></g></g></g><g clip-path="url(#783c41c51a)"><g clip-path="url(#2506715748)"><g clip-path="url(#b269493232)"><path fill="#e8e8e8" d="M 251.40625 266.996094 C 250.238281 269.886719 246.925781 271.300781 244.007812 270.121094 L 225.445312 262.617188 C 222.539062 261.441406 221.140625 258.125 222.3125 255.230469 L 228.65625 239.535156 C 229.832031 236.632812 233.140625 235.21875 236.050781 236.394531 L 254.609375 243.898438 C 257.53125 245.078125 258.929688 248.394531 257.753906 251.300781 L 251.40625 266.996094 " fill-opacity="1" fill-rule="nonzero"/></g></g></g><g clip-path="url(#4294034001)"><g clip-path="url(#e9bb80d3fe)"><g clip-path="url(#4e8c6497a2)"><path fill="#e8e8e8" d="M 286.175781 281.050781 C 285.003906 283.945312 281.695312 285.359375 278.773438 284.179688 L 260.214844 276.671875 C 257.308594 275.5 255.910156 272.179688 257.078125 269.285156 L 263.421875 253.59375 C 264.597656 250.6875 267.910156 249.273438 270.816406 250.449219 L 289.378906 257.957031 C 292.296875 259.136719 293.695312 262.453125 292.519531 265.359375 L 286.175781 281.050781 " fill-opacity="1" fill-rule="nonzero"/></g></g></g><g clip-path="url(#4e91256162)"><g clip-path="url(#0544aba61e)"><g clip-path="url(#d03ef19324)"><path fill="#e8e8e8" d="M 167.59375 274.957031 C 166.414062 277.875 163.109375 279.277344 160.199219 278.101562 L 141.628906 270.59375 C 138.730469 269.421875 137.316406 266.113281 138.496094 263.195312 L 144.835938 247.511719 C 146.011719 244.609375 149.328125 243.210938 152.226562 244.382812 L 170.796875 251.890625 C 173.707031 253.066406 175.109375 256.371094 173.933594 259.277344 L 167.59375 274.957031 " fill-opacity="1" fill-rule="nonzero"/></g></g></g><g clip-path="url(#64d397179d)"><g clip-path="url(#f5bb601db7)"><g clip-path="url(#5c35ce3459)"><path fill="#e8e8e8" d="M 202.085938 288.90625 C 200.90625 291.820312 197.597656 293.222656 194.691406 292.046875 L 176.128906 284.542969 C 173.222656 283.367188 171.820312 280.0625 173 277.144531 L 179.339844 261.464844 C 180.515625 258.558594 183.820312 257.15625 186.726562 258.332031 L 205.289062 265.835938 C 208.195312 267.011719 209.597656 270.316406 208.425781 273.222656 L 202.085938 288.90625 " fill-opacity="1" fill-rule="nonzero"/></g></g></g><g clip-path="url(#f4f3b7ef34)"><g clip-path="url(#c6f47d2d11)"><g clip-path="url(#b3fd3eb5e8)"><path fill="#e8e8e8" d="M 236.863281 302.964844 C 235.683594 305.882812 232.378906 307.285156 229.457031 306.105469 L 210.898438 298.601562 C 207.992188 297.425781 206.585938 294.121094 207.765625 291.203125 L 214.105469 275.519531 C 215.28125 272.617188 218.589844 271.214844 221.496094 272.390625 L 240.054688 279.894531 C 242.976562 281.074219 244.378906 284.378906 243.203125 287.285156 L 236.863281 302.964844 " fill-opacity="1" fill-rule="nonzero"/></g></g></g><g clip-path="url(#4556582b7f)"><g clip-path="url(#2618da4c40)"><g clip-path="url(#76f206a45c)"><path fill="#e8e8e8" d="M 271.632812 317.023438 C 270.453125 319.941406 267.144531 321.34375 264.226562 320.164062 L 245.664062 312.65625 C 242.757812 311.480469 241.355469 308.175781 242.535156 305.257812 L 248.875 289.578125 C 250.050781 286.671875 253.355469 285.273438 256.261719 286.445312 L 274.824219 293.953125 C 277.742188 295.132812 279.144531 298.4375 277.972656 301.34375 L 271.632812 317.023438 " fill-opacity="1" fill-rule="nonzero"/></g></g></g><g clip-path="url(#92377833cd)"><g clip-path="url(#4130e0e0b7)"><g clip-path="url(#35c0007340)"><path fill="#e8e8e8" d="M 332.605469 166.21875 C 330.59375 171.191406 324.554688 173.441406 319.125 171.246094 L 205.667969 125.371094 C 200.238281 123.175781 197.460938 117.359375 199.472656 112.390625 L 207.140625 93.417969 C 209.15625 88.4375 215.195312 86.183594 220.625 88.378906 L 334.082031 134.253906 C 339.511719 136.449219 342.289062 142.265625 340.273438 147.25 L 332.605469 166.21875 " fill-opacity="1" fill-rule="nonzero"/></g></g></g></svg>